<svg xmlns="http://www.w3.org/2000/svg" xmlns:xlink="http://www.w3.org/1999/xlink" width="40" zoomAndPan="magnify" viewBox="0 0 30 30.000001" height="40" preserveAspectRatio="xMidYMid meet" version="1.0"><defs><clipPath id="e26f39c115"><path d="M 1.066406 11 L 13 11 L 13 14 L 1.066406 14 Z M 1.066406 11 " clip-rule="nonzero"/></clipPath><clipPath id="13f0fd34f5"><path d="M 16 0 L 28.644531 0 L 28.644531 29.03125 L 16 29.03125 Z M 16 0 " clip-rule="nonzero"/></clipPath></defs><path fill="#583689" d="M 17.152344 25.546875 L 12.554688 25.546875 C 10.65625 25.546875 9.109375 23.984375 9.109375 22.0625 L 9.109375 19.742188 L 11.40625 19.742188 L 11.40625 22.0625 C 11.40625 22.703125 11.921875 23.222656 12.554688 23.222656 L 17.152344 23.222656 Z M 17.152344 25.546875 " fill-opacity="1" fill-rule="nonzero"/><g clip-path="url(#e26f39c115)"><path fill="#de002a" d="M 1.066406 11.613281 L 12.554688 11.613281 L 12.554688 13.9375 L 1.066406 13.9375 Z M 1.066406 11.613281 " fill-opacity="1" fill-rule="nonzero"/></g><g clip-path="url(#13f0fd34f5)"><path fill="#583689" d="M 18.878906 29.027344 C 17.292969 29.027344 16.003906 27.726562 16.003906 26.125 L 16.003906 5.226562 C 16.003906 3.980469 16.796875 2.875 17.972656 2.480469 L 24.867188 0.15625 C 25.140625 0.0585938 25.453125 0.00390625 25.773438 0.00390625 C 27.355469 0.00390625 28.644531 1.304688 28.644531 2.90625 L 28.644531 23.804688 C 28.644531 25.050781 27.851562 26.15625 26.675781 26.554688 L 19.78125 28.875 C 19.507812 28.972656 19.195312 29.027344 18.878906 29.027344 Z M 25.773438 2.324219 C 25.71875 2.324219 25.664062 2.335938 25.617188 2.351562 L 18.699219 4.679688 C 18.460938 4.761719 18.300781 4.980469 18.300781 5.226562 L 18.300781 26.125 C 18.300781 26.5 18.714844 26.792969 19.03125 26.683594 L 25.949219 24.351562 C 26.1875 24.269531 26.347656 24.050781 26.347656 23.804688 L 26.347656 2.90625 C 26.347656 2.585938 26.089844 2.324219 25.773438 2.324219 Z M 25.773438 2.324219 " fill-opacity="1" fill-rule="nonzero"/></g><path fill="#583689" d="M 11.40625 5.808594 L 9.109375 5.808594 L 9.109375 3.488281 C 9.109375 1.566406 10.65625 0.00390625 12.554688 0.00390625 L 25.773438 0.00390625 L 25.773438 2.324219 L 12.554688 2.324219 C 11.921875 2.324219 11.40625 2.84375 11.40625 3.488281 Z M 11.40625 5.808594 " fill-opacity="1" fill-rule="nonzero"/><path fill="#de002a" d="M 8.773438 18.238281 L 7.148438 16.597656 L 10.929688 12.773438 L 7.148438 8.953125 L 8.773438 7.308594 L 13.367188 11.953125 C 13.816406 12.40625 13.816406 13.140625 13.367188 13.59375 Z M 8.773438 18.238281 " fill-opacity="1" fill-rule="nonzero"/></svg>