<svg xmlns="http://www.w3.org/2000/svg" xmlns:xlink="http://www.w3.org/1999/xlink" width="80" zoomAndPan="magnify" viewBox="0 0 60 44.999999" height="60" preserveAspectRatio="xMidYMid meet" version="1.0"><defs><clipPath id="77baaf07b3"><path d="M 19 25 L 41 25 L 41 44.4375 L 19 44.4375 Z M 19 25 " clip-rule="nonzero"/></clipPath></defs><path fill="#555588" d="M 40.023438 43.828125 L 40.023438 34.816406 C 40.023438 30.109375 36.203125 26.257812 31.535156 26.257812 L 28.414062 26.257812 C 23.746094 26.257812 19.929688 30.109375 19.929688 34.816406 L 19.929688 43.828125 L 40.023438 43.828125 " fill-opacity="1" fill-rule="nonzero"/><g clip-path="url(#77baaf07b3)"><path fill="#555588" d="M 20.539062 43.214844 L 39.414062 43.214844 L 39.414062 34.816406 C 39.414062 30.433594 35.878906 26.871094 31.535156 26.871094 L 28.414062 26.871094 C 24.070312 26.871094 20.539062 30.433594 20.539062 34.816406 Z M 40.023438 44.441406 L 19.929688 44.441406 C 19.59375 44.441406 19.320312 44.167969 19.320312 43.828125 L 19.320312 34.816406 C 19.320312 29.757812 23.402344 25.644531 28.414062 25.644531 L 31.535156 25.644531 C 36.550781 25.644531 40.628906 29.757812 40.628906 34.816406 L 40.628906 43.828125 C 40.628906 44.167969 40.359375 44.441406 40.023438 44.441406 " fill-opacity="1" fill-rule="nonzero"/></g><path fill="#555588" d="M 34.292969 4.042969 C 28.878906 1.636719 22.5625 4.113281 20.179688 9.570312 C 17.796875 15.027344 20.25 21.402344 25.660156 23.804688 C 31.070312 26.210938 37.390625 23.734375 39.773438 18.277344 C 42.15625 12.820312 39.703125 6.445312 34.292969 4.042969 " fill-opacity="1" fill-rule="nonzero"/><path fill="#555588" d="M 29.980469 3.734375 C 28.742188 3.734375 27.507812 3.964844 26.320312 4.429688 C 23.804688 5.414062 21.824219 7.328125 20.734375 9.820312 C 19.648438 12.308594 19.585938 15.078125 20.5625 17.613281 C 21.539062 20.148438 23.4375 22.148438 25.90625 23.246094 C 28.375 24.34375 31.117188 24.402344 33.632812 23.417969 C 36.144531 22.433594 38.128906 20.519531 39.214844 18.03125 C 41.460938 12.890625 39.140625 6.867188 34.046875 4.601562 C 32.742188 4.023438 31.363281 3.734375 29.980469 3.734375 Z M 29.972656 25.339844 C 28.421875 25.339844 26.875 25.015625 25.414062 24.367188 C 22.648438 23.140625 20.523438 20.898438 19.429688 18.054688 C 18.335938 15.214844 18.402344 12.113281 19.621094 9.324219 C 22.136719 3.566406 28.828125 0.945312 34.535156 3.480469 C 40.246094 6.015625 42.84375 12.765625 40.328125 18.523438 C 39.109375 21.3125 36.890625 23.457031 34.070312 24.5625 C 32.742188 25.082031 31.355469 25.339844 29.972656 25.339844 " fill-opacity="1" fill-rule="nonzero"/><path fill="#ffffff" d="M 36.820312 14.867188 C 36.773438 14.867188 36.726562 14.863281 36.679688 14.847656 C 36.351562 14.769531 36.152344 14.441406 36.230469 14.113281 C 36.265625 13.960938 37.039062 10.4375 33.535156 8.882812 C 33.226562 8.746094 33.085938 8.382812 33.222656 8.074219 C 33.359375 7.761719 33.71875 7.621094 34.023438 7.757812 C 38.472656 9.734375 37.421875 14.351562 37.414062 14.398438 C 37.34375 14.679688 37.097656 14.867188 36.820312 14.867188 " fill-opacity="1" fill-rule="nonzero"/><path fill="#ffffff" d="M 37.976562 36.507812 C 37.960938 36.507812 37.945312 36.507812 37.933594 36.503906 C 37.597656 36.480469 37.34375 36.1875 37.371094 35.851562 C 37.382812 35.660156 37.628906 31.261719 34.046875 29.671875 C 33.738281 29.535156 33.601562 29.171875 33.734375 28.863281 C 33.871094 28.554688 34.230469 28.414062 34.535156 28.550781 C 38.910156 30.492188 38.597656 35.714844 38.582031 35.9375 C 38.558594 36.257812 38.292969 36.507812 37.976562 36.507812 " fill-opacity="1" fill-rule="nonzero"/><path fill="#f8d5fc" d="M 17.574219 27.949219 C 17.554688 24.246094 14.546875 21.222656 10.867188 21.222656 L 8.402344 21.222656 C 4.710938 21.222656 1.695312 24.265625 1.695312 27.988281 L 1.695312 35.113281 L 14.886719 35.113281 C 15.289062 32.4375 15.992188 29.972656 17.574219 27.949219 " fill-opacity="1" fill-rule="nonzero"/><path fill="#555588" d="M 2.300781 34.5 L 14.367188 34.5 C 14.859375 31.578125 15.671875 29.46875 16.964844 27.746094 C 16.835938 24.464844 14.144531 21.835938 10.871094 21.835938 L 8.402344 21.835938 C 5.039062 21.835938 2.300781 24.59375 2.300781 27.988281 Z M 14.886719 35.726562 L 1.695312 35.726562 C 1.359375 35.726562 1.085938 35.449219 1.085938 35.113281 L 1.085938 27.988281 C 1.085938 23.917969 4.367188 20.609375 8.402344 20.609375 L 10.871094 20.609375 C 14.878906 20.609375 18.160156 23.898438 18.183594 27.945312 C 18.183594 28.082031 18.140625 28.21875 18.054688 28.328125 C 16.742188 30.007812 15.949219 32.125 15.484375 35.203125 C 15.441406 35.503906 15.183594 35.726562 14.886719 35.726562 " fill-opacity="1" fill-rule="nonzero"/><path fill="#f8d5fc" d="M 13.046875 3.660156 C 8.769531 1.757812 3.773438 3.714844 1.890625 8.03125 C 0.0078125 12.34375 1.945312 17.382812 6.226562 19.28125 C 10.5 21.183594 15.496094 19.226562 17.378906 14.914062 C 19.265625 10.597656 17.324219 5.558594 13.046875 3.660156 " fill-opacity="1" fill-rule="nonzero"/><path fill="#555588" d="M 9.648438 3.546875 C 6.625 3.546875 3.742188 5.316406 2.449219 8.277344 C 1.601562 10.214844 1.554688 12.367188 2.3125 14.339844 C 3.074219 16.3125 4.550781 17.871094 6.46875 18.722656 C 8.390625 19.574219 10.523438 19.625 12.480469 18.855469 C 14.433594 18.089844 15.980469 16.601562 16.824219 14.664062 C 17.671875 12.726562 17.71875 10.574219 16.957031 8.601562 C 16.199219 6.628906 14.722656 5.074219 12.800781 4.21875 C 11.777344 3.765625 10.703125 3.546875 9.648438 3.546875 Z M 9.621094 20.621094 C 8.402344 20.621094 7.164062 20.371094 5.980469 19.84375 C 3.761719 18.859375 2.058594 17.0625 1.179688 14.785156 C 0.304688 12.503906 0.359375 10.019531 1.335938 7.78125 C 3.351562 3.164062 8.714844 1.0625 13.292969 3.097656 C 15.507812 4.082031 17.214844 5.878906 18.089844 8.15625 C 18.96875 10.4375 18.914062 12.921875 17.9375 15.160156 C 16.441406 18.582031 13.109375 20.621094 9.621094 20.621094 " fill-opacity="1" fill-rule="nonzero"/><path fill="#ffffff" d="M 15.046875 12.34375 C 15 12.34375 14.953125 12.339844 14.90625 12.328125 C 14.578125 12.25 14.378906 11.917969 14.457031 11.589844 C 14.484375 11.46875 15.0625 8.789062 12.398438 7.601562 C 12.089844 7.464844 11.953125 7.105469 12.085938 6.792969 C 12.222656 6.484375 12.582031 6.34375 12.886719 6.480469 C 15.777344 7.761719 15.949219 10.570312 15.636719 11.875 C 15.570312 12.15625 15.324219 12.34375 15.046875 12.34375 " fill-opacity="1" fill-rule="nonzero"/><path fill="#ffffff" d="M 15.882812 28.15625 C 15.589844 28.15625 15.332031 27.945312 15.285156 27.644531 C 15.277344 27.609375 14.84375 25.214844 12.746094 24.007812 C 12.453125 23.839844 12.355469 23.464844 12.519531 23.171875 C 12.6875 22.878906 13.058594 22.777344 13.347656 22.945312 C 15.964844 24.449219 16.464844 27.320312 16.484375 27.445312 C 16.539062 27.777344 16.3125 28.09375 15.984375 28.148438 C 15.949219 28.15625 15.914062 28.15625 15.882812 28.15625 " fill-opacity="1" fill-rule="nonzero"/><path fill="#f8d5fc" d="M 42.441406 27.949219 C 42.464844 24.246094 45.472656 21.222656 49.148438 21.222656 L 51.617188 21.222656 C 55.304688 21.222656 58.324219 24.265625 58.324219 27.988281 L 58.324219 35.113281 L 45.132812 35.113281 C 44.730469 32.4375 44.027344 29.972656 42.441406 27.949219 " fill-opacity="1" fill-rule="nonzero"/><path fill="#555588" d="M 45.652344 34.5 L 57.714844 34.5 L 57.714844 27.988281 C 57.714844 24.59375 54.980469 21.835938 51.617188 21.835938 L 49.148438 21.835938 C 45.875 21.835938 43.183594 24.464844 43.054688 27.746094 C 44.347656 29.46875 45.160156 31.578125 45.652344 34.5 Z M 58.324219 35.726562 L 45.132812 35.726562 C 44.832031 35.726562 44.578125 35.503906 44.53125 35.203125 C 44.070312 32.125 43.277344 30.007812 41.964844 28.328125 C 41.878906 28.21875 41.832031 28.082031 41.835938 27.945312 C 41.859375 23.898438 45.140625 20.609375 49.148438 20.609375 L 51.617188 20.609375 C 55.648438 20.609375 58.933594 23.917969 58.933594 27.988281 L 58.933594 35.113281 C 58.933594 35.449219 58.660156 35.726562 58.324219 35.726562 " fill-opacity="1" fill-rule="nonzero"/><path fill="#f8d5fc" d="M 53.796875 3.660156 C 49.519531 1.757812 44.523438 3.714844 42.640625 8.03125 C 40.753906 12.34375 42.695312 17.382812 46.972656 19.28125 C 51.25 21.183594 56.246094 19.226562 58.128906 14.914062 C 60.015625 10.597656 58.074219 5.558594 53.796875 3.660156 " fill-opacity="1" fill-rule="nonzero"/><path fill="#555588" d="M 50.394531 3.546875 C 47.375 3.546875 44.488281 5.316406 43.195312 8.277344 C 42.351562 10.214844 42.304688 12.367188 43.0625 14.339844 C 43.820312 16.3125 45.296875 17.871094 47.21875 18.722656 C 49.136719 19.574219 51.273438 19.625 53.230469 18.855469 C 55.183594 18.089844 56.726562 16.601562 57.574219 14.664062 C 58.417969 12.726562 58.464844 10.574219 57.707031 8.601562 C 56.945312 6.628906 55.472656 5.074219 53.550781 4.21875 C 52.523438 3.765625 51.453125 3.546875 50.394531 3.546875 Z M 50.371094 20.621094 C 49.152344 20.621094 47.914062 20.371094 46.726562 19.84375 C 44.511719 18.859375 42.804688 17.0625 41.929688 14.785156 C 41.050781 12.503906 41.105469 10.019531 42.082031 7.78125 C 43.058594 5.546875 44.839844 3.828125 47.101562 2.941406 C 49.359375 2.058594 51.824219 2.113281 54.039062 3.097656 C 56.257812 4.082031 57.960938 5.878906 58.839844 8.15625 C 59.71875 10.4375 59.664062 12.921875 58.6875 15.160156 C 57.191406 18.582031 53.859375 20.621094 50.371094 20.621094 " fill-opacity="1" fill-rule="nonzero"/><path fill="#ffffff" d="M 55.796875 12.34375 C 55.75 12.34375 55.703125 12.339844 55.652344 12.328125 C 55.328125 12.25 55.128906 11.917969 55.207031 11.589844 C 55.234375 11.46875 55.8125 8.789062 53.144531 7.601562 C 52.839844 7.464844 52.699219 7.105469 52.835938 6.792969 C 52.96875 6.484375 53.328125 6.34375 53.636719 6.480469 C 56.527344 7.761719 56.699219 10.570312 56.386719 11.875 C 56.320312 12.15625 56.070312 12.34375 55.796875 12.34375 " fill-opacity="1" fill-rule="nonzero"/><path fill="#ffffff" d="M 44.136719 28.15625 C 44.101562 28.15625 44.070312 28.15625 44.035156 28.148438 C 43.703125 28.09375 43.480469 27.777344 43.535156 27.445312 C 43.554688 27.320312 44.054688 24.449219 46.667969 22.945312 C 46.960938 22.777344 47.332031 22.878906 47.496094 23.171875 C 47.664062 23.464844 47.5625 23.839844 47.273438 24.007812 C 45.152344 25.230469 44.738281 27.621094 44.734375 27.644531 C 44.6875 27.945312 44.425781 28.15625 44.136719 28.15625 " fill-opacity="1" fill-rule="nonzero"/></svg>