<svg xmlns="http://www.w3.org/2000/svg" xmlns:xlink="http://www.w3.org/1999/xlink" width="40" zoomAndPan="magnify" viewBox="0 0 30 30.000001" height="40" preserveAspectRatio="xMidYMid meet" version="1.0"><defs><clipPath id="b052b15c1a"><path d="M 0.484375 0 L 29.515625 0 L 29.515625 29.03125 L 0.484375 29.03125 Z M 0.484375 0 " clip-rule="nonzero"/></clipPath></defs><g clip-path="url(#b052b15c1a)"><path fill="#555588" d="M 15.007812 0 C 14.054688 0 13.109375 0.09375 12.175781 0.28125 C 11.238281 0.464844 10.332031 0.742188 9.453125 1.105469 C 8.570312 1.472656 7.734375 1.917969 6.941406 2.449219 C 6.148438 2.980469 5.417969 3.582031 4.742188 4.253906 C 4.070312 4.929688 3.46875 5.664062 2.9375 6.457031 C 2.410156 7.25 1.960938 8.085938 1.597656 8.964844 C 1.234375 9.847656 0.957031 10.753906 0.773438 11.691406 C 0.585938 12.625 0.492188 13.570312 0.492188 14.523438 C 0.496094 15.476562 0.585938 16.417969 0.773438 17.355469 C 0.960938 18.289062 1.234375 19.195312 1.601562 20.078125 C 1.964844 20.957031 2.414062 21.792969 2.941406 22.585938 C 3.472656 23.378906 4.074219 24.113281 4.75 24.785156 C 5.421875 25.460938 6.15625 26.0625 6.949219 26.589844 C 7.742188 27.121094 8.578125 27.566406 9.460938 27.933594 C 10.339844 28.296875 11.25 28.570312 12.183594 28.757812 C 13.117188 28.941406 14.0625 29.035156 15.015625 29.035156 C 15.96875 29.035156 16.914062 28.941406 17.847656 28.757812 C 18.78125 28.570312 19.691406 28.292969 20.570312 27.929688 C 21.453125 27.5625 22.289062 27.117188 23.082031 26.585938 C 23.871094 26.058594 24.605469 25.453125 25.28125 24.78125 C 25.953125 24.105469 26.554688 23.375 27.085938 22.582031 C 27.613281 21.789062 28.0625 20.949219 28.425781 20.070312 C 28.789062 19.191406 29.066406 18.28125 29.25 17.347656 C 29.4375 16.410156 29.53125 15.46875 29.53125 14.515625 C 29.527344 13.5625 29.433594 12.617188 29.246094 11.683594 C 29.058594 10.75 28.78125 9.84375 28.414062 8.960938 C 28.050781 8.082031 27.601562 7.246094 27.074219 6.457031 C 26.542969 5.664062 25.941406 4.929688 25.265625 4.257812 C 24.59375 3.582031 23.859375 2.980469 23.066406 2.453125 C 22.273438 1.921875 21.4375 1.476562 20.558594 1.109375 C 19.679688 0.746094 18.773438 0.46875 17.835938 0.28125 C 16.902344 0.09375 15.960938 0 15.007812 0 Z M 19.015625 26.765625 C 18.386719 26.890625 18.152344 26.503906 18.152344 26.171875 C 18.152344 25.746094 18.171875 24.390625 18.171875 22.707031 C 18.171875 21.535156 17.773438 20.773438 17.320312 20.382812 C 20.117188 20.066406 23.0625 19.003906 23.0625 14.167969 C 23.082031 12.867188 22.652344 11.742188 21.765625 10.789062 C 21.894531 10.472656 22.339844 9.183594 21.644531 7.445312 C 21.644531 7.445312 20.589844 7.101562 18.183594 8.734375 C 16.085938 8.167969 13.988281 8.167969 11.894531 8.734375 C 9.484375 7.121094 8.429688 7.445312 8.429688 7.445312 C 7.742188 9.175781 8.179688 10.464844 8.308594 10.789062 C 7.429688 11.742188 7 12.871094 7.023438 14.167969 C 7.023438 18.984375 9.949219 20.066406 12.746094 20.382812 C 12.382812 20.695312 12.050781 21.242188 11.941406 22.066406 C 11.214844 22.390625 9.410156 22.929688 8.28125 21.03125 C 8.039062 20.648438 7.335938 19.722656 6.34375 19.734375 C 5.289062 19.753906 5.917969 20.335938 6.355469 20.570312 C 6.890625 20.875 7.503906 21.988281 7.652344 22.347656 C 7.902344 23.058594 8.714844 24.410156 11.875 23.828125 C 11.875 24.882812 11.894531 25.875 11.894531 26.167969 C 11.894531 26.5 11.664062 26.871094 11.03125 26.761719 C 10.5625 26.605469 10.109375 26.421875 9.664062 26.210938 C 9.214844 26 8.785156 25.765625 8.367188 25.503906 C 7.949219 25.242188 7.546875 24.957031 7.164062 24.652344 C 6.78125 24.34375 6.414062 24.011719 6.070312 23.664062 C 5.722656 23.3125 5.398438 22.941406 5.097656 22.554688 C 4.796875 22.164062 4.515625 21.757812 4.261719 21.335938 C 4.007812 20.914062 3.777344 20.480469 3.574219 20.03125 C 3.371094 19.582031 3.195312 19.125 3.046875 18.65625 C 2.898438 18.183594 2.777344 17.707031 2.683594 17.226562 C 2.589844 16.742188 2.523438 16.253906 2.488281 15.761719 C 2.453125 15.269531 2.445312 14.78125 2.46875 14.289062 C 2.488281 13.796875 2.539062 13.304688 2.617188 12.820312 C 2.699219 12.335938 2.804688 11.855469 2.941406 11.382812 C 3.078125 10.90625 3.238281 10.445312 3.429688 9.988281 C 3.621094 9.535156 3.835938 9.09375 4.078125 8.664062 C 4.320312 8.234375 4.585938 7.824219 4.878906 7.425781 C 5.167969 7.027344 5.480469 6.648438 5.816406 6.289062 C 6.152344 5.925781 6.507812 5.585938 6.882812 5.265625 C 7.257812 4.949219 7.652344 4.652344 8.0625 4.378906 C 8.46875 4.105469 8.894531 3.859375 9.335938 3.636719 C 9.773438 3.414062 10.222656 3.214844 10.6875 3.046875 C 11.148438 2.875 11.621094 2.734375 12.097656 2.621094 C 12.578125 2.503906 13.0625 2.417969 13.550781 2.359375 C 14.039062 2.304688 14.53125 2.273438 15.023438 2.273438 C 15.515625 2.273438 16.007812 2.304688 16.496094 2.359375 C 16.984375 2.417969 17.46875 2.503906 17.949219 2.621094 C 18.425781 2.734375 18.898438 2.875 19.359375 3.046875 C 19.824219 3.214844 20.273438 3.414062 20.710938 3.636719 C 21.152344 3.859375 21.574219 4.105469 21.984375 4.378906 C 22.394531 4.652344 22.789062 4.949219 23.164062 5.265625 C 23.539062 5.585938 23.894531 5.925781 24.230469 6.289062 C 24.566406 6.648438 24.878906 7.027344 25.167969 7.425781 C 25.460938 7.824219 25.726562 8.234375 25.96875 8.664062 C 26.210938 9.09375 26.425781 9.535156 26.617188 9.988281 C 26.808594 10.445312 26.96875 10.90625 27.105469 11.382812 C 27.242188 11.855469 27.347656 12.335938 27.429688 12.820312 C 27.507812 13.304688 27.558594 13.796875 27.578125 14.289062 C 27.601562 14.78125 27.59375 15.269531 27.558594 15.761719 C 27.523438 16.253906 27.457031 16.742188 27.363281 17.226562 C 27.269531 17.707031 27.148438 18.183594 27 18.65625 C 26.851562 19.125 26.675781 19.582031 26.472656 20.03125 C 26.269531 20.480469 26.039062 20.914062 25.785156 21.335938 C 25.53125 21.757812 25.25 22.164062 24.949219 22.554688 C 24.648438 22.941406 24.324219 23.3125 23.976562 23.664062 C 23.632812 24.011719 23.265625 24.34375 22.882812 24.652344 C 22.5 24.957031 22.097656 25.242188 21.679688 25.503906 C 21.261719 25.765625 20.828125 26 20.382812 26.210938 C 19.9375 26.421875 19.484375 26.605469 19.015625 26.761719 Z M 19.015625 26.765625 " fill-opacity="1" fill-rule="evenodd"/></g></svg>