<svg xmlns="http://www.w3.org/2000/svg" xmlns:xlink="http://www.w3.org/1999/xlink" width="40" zoomAndPan="magnify" viewBox="0 0 30 30.000001" height="40" preserveAspectRatio="xMidYMid meet" version="1.0"><defs><clipPath id="03dcf8164d"><path d="M 0.90625 0 L 29.210938 0 L 29.210938 29.03125 L 0.90625 29.03125 Z M 0.90625 0 " clip-rule="nonzero"/></clipPath></defs><g clip-path="url(#03dcf8164d)"><path fill="#555588" d="M 0.917969 20.046875 C 0.917969 19.605469 0.980469 19.230469 1.101562 18.929688 C 1.222656 18.636719 1.402344 18.386719 1.644531 18.179688 C 1.878906 17.984375 2.144531 17.847656 2.4375 17.769531 C 2.742188 17.683594 3.066406 17.640625 3.421875 17.640625 C 3.738281 17.640625 4.050781 17.683594 4.359375 17.769531 C 4.660156 17.851562 4.925781 17.988281 5.152344 18.179688 C 5.382812 18.367188 5.5625 18.617188 5.695312 18.929688 C 5.824219 19.230469 5.894531 19.601562 5.894531 20.046875 C 5.894531 20.46875 5.824219 20.832031 5.695312 21.136719 C 5.570312 21.425781 5.390625 21.675781 5.152344 21.886719 C 4.925781 22.082031 4.660156 22.222656 4.359375 22.308594 C 4.050781 22.40625 3.738281 22.453125 3.421875 22.449219 C 3.066406 22.449219 2.742188 22.402344 2.4375 22.308594 C 2.140625 22.226562 1.875 22.085938 1.644531 21.886719 C 1.414062 21.6875 1.234375 21.4375 1.101562 21.136719 C 0.980469 20.835938 0.917969 20.472656 0.917969 20.046875 M 8.929688 29.027344 C 8.46875 29.027344 8.007812 28.996094 7.523438 28.929688 C 7.039062 28.863281 6.636719 28.777344 6.316406 28.675781 L 6.316406 25.28125 C 6.609375 25.375 6.886719 25.441406 7.148438 25.480469 C 7.4375 25.527344 7.726562 25.550781 8.015625 25.550781 C 8.253906 25.550781 8.476562 25.511719 8.683594 25.4375 C 8.910156 25.371094 9.09375 25.242188 9.238281 25.054688 C 9.398438 24.875 9.527344 24.632812 9.621094 24.320312 C 9.714844 24.019531 9.761719 23.625 9.761719 23.144531 L 9.761719 6.257812 L 14.09375 6.257812 L 14.09375 23.78125 C 14.09375 24.507812 14 25.1875 13.8125 25.808594 C 13.644531 26.433594 13.347656 26.984375 12.917969 27.46875 C 12.507812 27.949219 11.980469 28.324219 11.324219 28.601562 C 10.667969 28.875 9.875 29.011719 8.9375 29.011719 M 9.585938 2.148438 C 9.585938 1.742188 9.648438 1.410156 9.769531 1.136719 C 9.894531 0.863281 10.058594 0.644531 10.269531 0.484375 C 10.484375 0.316406 10.734375 0.195312 11.019531 0.132812 C 11.3125 0.0664062 11.621094 0.03125 11.945312 0.03125 C 12.25 0.03125 12.554688 0.0625 12.851562 0.132812 C 13.128906 0.191406 13.375 0.308594 13.59375 0.484375 C 13.820312 0.65625 13.992188 0.875 14.101562 1.136719 C 14.234375 1.398438 14.300781 1.734375 14.300781 2.148438 C 14.300781 2.546875 14.234375 2.878906 14.101562 3.164062 C 13.980469 3.4375 13.808594 3.65625 13.59375 3.828125 C 13.371094 3.996094 13.125 4.113281 12.851562 4.179688 C 12.554688 4.25 12.25 4.28125 11.945312 4.28125 C 11.621094 4.28125 11.316406 4.246094 11.019531 4.179688 C 10.746094 4.109375 10.496094 3.992188 10.269531 3.828125 C 10.058594 3.65625 9.894531 3.433594 9.769531 3.164062 C 9.648438 2.890625 9.585938 2.554688 9.585938 2.148438 M 29.136719 17.375 C 29.136719 18.203125 28.984375 18.929688 28.675781 19.550781 C 28.371094 20.175781 27.941406 20.695312 27.382812 21.105469 C 26.820312 21.523438 26.144531 21.832031 25.347656 22.039062 C 24.554688 22.246094 23.664062 22.351562 22.679688 22.351562 C 22.15625 22.351562 21.671875 22.332031 21.230469 22.296875 C 20.804688 22.269531 20.382812 22.21875 19.964844 22.140625 C 19.566406 22.066406 19.183594 21.972656 18.8125 21.859375 C 18.429688 21.738281 18.058594 21.597656 17.691406 21.433594 L 17.691406 17.871094 C 18.089844 18.070312 18.507812 18.238281 18.941406 18.410156 L 20.261719 18.832031 L 21.527344 19.101562 C 21.910156 19.164062 22.292969 19.199219 22.679688 19.199219 C 23.066406 19.199219 23.398438 19.167969 23.671875 19.101562 C 23.949219 19.027344 24.167969 18.917969 24.339844 18.804688 C 24.519531 18.671875 24.648438 18.523438 24.722656 18.34375 C 24.808594 18.164062 24.851562 17.976562 24.851562 17.777344 C 24.851562 17.578125 24.816406 17.40625 24.75 17.253906 C 24.695312 17.09375 24.566406 16.929688 24.339844 16.757812 C 24.121094 16.582031 23.800781 16.390625 23.371094 16.164062 L 21.683594 15.335938 L 19.875 14.417969 C 19.375 14.105469 18.957031 13.769531 18.628906 13.382812 C 18.300781 13.003906 18.058594 12.574219 17.902344 12.097656 C 17.742188 11.605469 17.660156 11.027344 17.660156 10.355469 C 17.660156 9.621094 17.804688 8.980469 18.085938 8.433594 C 18.375 7.871094 18.777344 7.410156 19.292969 7.046875 C 19.816406 6.679688 20.441406 6.40625 21.171875 6.21875 C 21.910156 6.027344 22.726562 5.933594 23.628906 5.933594 C 24.574219 5.933594 25.476562 6.042969 26.328125 6.261719 C 27.179688 6.476562 28.054688 6.800781 28.957031 7.238281 L 27.648438 10.292969 C 26.929688 9.953125 26.242188 9.675781 25.589844 9.457031 C 24.953125 9.242188 24.300781 9.136719 23.628906 9.132812 C 23.042969 9.132812 22.617188 9.238281 22.351562 9.445312 C 22.097656 9.652344 21.96875 9.933594 21.96875 10.292969 C 21.96875 10.480469 22 10.660156 22.066406 10.800781 C 22.132812 10.945312 22.265625 11.09375 22.464844 11.261719 C 22.664062 11.414062 22.945312 11.582031 23.304688 11.769531 L 24.710938 12.433594 L 26.527344 13.3125 C 27.039062 13.570312 27.503906 13.898438 27.921875 14.285156 C 28.308594 14.652344 28.609375 15.082031 28.816406 15.574219 C 29.023438 16.066406 29.128906 16.660156 29.128906 17.355469 " fill-opacity="1" fill-rule="nonzero"/></g></svg>