<svg xmlns="http://www.w3.org/2000/svg" xmlns:xlink="http://www.w3.org/1999/xlink" width="40" zoomAndPan="magnify" viewBox="0 0 30 30.000001" height="40" preserveAspectRatio="xMidYMid meet" version="1.0"><defs><clipPath id="eed8caac7a"><path d="M 0.484375 0 L 21 0 L 21 29 L 0.484375 29 Z M 0.484375 0 " clip-rule="nonzero"/></clipPath><clipPath id="771e3f2c4c"><path d="M 22 9 L 29.515625 9 L 29.515625 20 L 22 20 Z M 22 9 " clip-rule="nonzero"/></clipPath></defs><g clip-path="url(#eed8caac7a)"><path fill="#583689" d="M 16.675781 28.972656 L 3.953125 28.972656 C 2.039062 28.972656 0.484375 27.417969 0.484375 25.503906 L 0.484375 3.527344 C 0.484375 1.613281 2.039062 0.0585938 3.953125 0.0585938 L 16.675781 0.0585938 C 18.589844 0.0585938 20.148438 1.613281 20.148438 3.527344 L 20.148438 10.46875 L 17.832031 10.46875 L 17.832031 3.527344 C 17.832031 2.890625 17.316406 2.371094 16.675781 2.371094 L 3.953125 2.371094 C 3.316406 2.371094 2.796875 2.890625 2.796875 3.527344 L 2.796875 25.503906 C 2.796875 26.140625 3.316406 26.660156 3.953125 26.660156 L 16.675781 26.660156 C 17.316406 26.660156 17.832031 26.140625 17.832031 25.503906 L 17.832031 18.566406 L 20.148438 18.566406 L 20.148438 25.503906 C 20.148438 27.417969 18.589844 28.972656 16.675781 28.972656 Z M 16.675781 28.972656 " fill-opacity="1" fill-rule="nonzero"/></g><path fill="#de002a" d="M 10.894531 13.359375 L 28.242188 13.359375 L 28.242188 15.671875 L 10.894531 15.671875 Z M 10.894531 13.359375 " fill-opacity="1" fill-rule="nonzero"/><g clip-path="url(#771e3f2c4c)"><path fill="#de002a" d="M 24.433594 19.960938 L 22.800781 18.324219 L 26.609375 14.515625 L 22.800781 10.707031 L 24.433594 9.070312 L 29.0625 13.699219 C 29.515625 14.152344 29.515625 14.882812 29.0625 15.332031 Z M 24.433594 19.960938 " fill-opacity="1" fill-rule="nonzero"/></g></svg>