<svg xmlns="http://www.w3.org/2000/svg" xmlns:xlink="http://www.w3.org/1999/xlink" width="60" zoomAndPan="magnify" viewBox="0 0 45 30.000001" height="40" preserveAspectRatio="xMidYMid meet" version="1.0"><defs><clipPath id="93a5e02e78"><path d="M 0.726562 1.96875 L 44.273438 1.96875 L 44.273438 27.371094 L 0.726562 27.371094 Z M 0.726562 1.96875 " clip-rule="nonzero"/></clipPath></defs><g clip-path="url(#93a5e02e78)"><path fill="#555588" d="M 40.894531 1.96875 L 4.105469 1.96875 C 2.429688 1.96875 0.757812 3.554688 0.757812 5.144531 L 0.757812 23.984375 C 0.757812 25.574219 2.429688 27.371094 4.105469 27.371094 L 40.894531 27.371094 C 42.570312 27.371094 44.242188 25.574219 44.242188 23.984375 L 44.242188 5.144531 C 44.242188 3.554688 42.570312 1.96875 40.894531 1.96875 Z M 24.171875 22.292969 L 20.828125 22.292969 L 20.828125 12.128906 L 15.808594 17.277344 L 10.792969 12.128906 L 10.792969 22.292969 L 7.449219 22.292969 L 7.449219 7.050781 L 10.792969 7.050781 L 15.808594 12.804688 L 20.828125 7.050781 L 24.171875 7.050781 Z M 34.207031 22.292969 L 29.191406 15.515625 L 32.535156 15.515625 L 32.535156 7.050781 L 35.878906 7.050781 L 35.878906 15.515625 L 39.222656 15.515625 Z M 34.207031 22.292969 " fill-opacity="1" fill-rule="nonzero"/></g></svg>