<svg xmlns="http://www.w3.org/2000/svg" xmlns:xlink="http://www.w3.org/1999/xlink" viewBox="0 0 51 65" fill="#fff" fill-rule="evenodd" stroke="#000" stroke-linecap="round" stroke-linejoin="round"><use xlink:href="#D" x=".5" y=".5"/><defs><filter id="A" x="-27.5%" y="-32.5%" width="160%" height="160%"><feGaussianBlur in="SourceAlpha" stdDeviation="2"/><feOffset dx="1" dy="-1" result="B"/><feFlood flood-color="#000" flood-opacity=".2"/><feComposite in2="B" operator="in" result="C"/><feMerge><feMergeNode in="C"/><feMergeNode in="SourceGraphic"/></feMerge></filter><filter id="B" x="-6%" y="-4.6875%" width="116%" height="112.5%"><feGaussianBlur in="SourceAlpha" stdDeviation="1"/><feOffset dx="2" dy="2" result="B"/><feFlood flood-color="#000" flood-opacity=".2"/><feComposite in2="B" operator="in" result="C"/><feMerge><feMergeNode in="C"/><feMergeNode in="SourceGraphic"/></feMerge></filter><path id="C" d="M20 20L0 0h15a4.99 4.99 0 0 1 5 5z"/></defs><symbol id="D" overflow="visible"><g transform="matrix(-1 0 0 -1 50 20)"><use xlink:href="#C" fill="#ffe082" stroke="none" filter="url(#A)"/><defs/></g><path d="M50 20L30 0H5a4.99 4.99 0 0 0-5 5v54a4.99 4.99 0 0 0 5 5h40a4.99 4.99 0 0 0 5-5z" fill="#ffca28" stroke="none" filter="url(#B)"/><defs/><g transform="matrix(-1 0 0 -1 50 20)"><use xlink:href="#C" fill="#ffeb3b" stroke="none" filter="url(#A)"/><defs/><use xlink:href="#C" fill="#ffd54f" stroke="none" filter="url(#A)"/><defs/></g><path d="M19.039 43.947V32.723h3.341v11.224q0 1.548-.685 2.734-.685 1.186-1.932 1.832-1.247.646-2.817.646-2.572 0-4.009-1.308-1.437-1.308-1.437-3.703h3.363q0 1.191.501 1.759.501.568 1.581.568.958 0 1.526-.657.568-.657.568-1.871zm14.609.735q0-.947-.668-1.453-.668-.507-2.405-1.069-1.737-.562-2.75-1.108-2.762-1.492-2.762-4.02 0-1.314.74-2.344.741-1.03 2.127-1.609 1.386-.579 3.112-.579 1.737 0 3.096.629 1.358.629 2.11 1.776.752 1.147.752 2.606h-3.34q0-1.114-.701-1.731-.702-.618-1.971-.618-1.225 0-1.904.518-.679.518-.679 1.364 0 .791.796 1.325.796.535 2.344 1.002 2.851.857 4.153 2.127Q37 42.767 37 44.66q0 2.105-1.592 3.302-1.592 1.197-4.287 1.197-1.871 0-3.407-.685-1.537-.685-2.344-1.876-.807-1.191-.807-2.762h3.352q0 2.684 3.207 2.684 1.191 0 1.86-.484.668-.484.668-1.353z" fill="#000" stroke="none"/></symbol></svg>