<svg xmlns="http://www.w3.org/2000/svg" xmlns:xlink="http://www.w3.org/1999/xlink" width="240" zoomAndPan="magnify" viewBox="0 0 180 32.999998" height="44" preserveAspectRatio="xMidYMid meet" version="1.0"><defs><g/><clipPath id="12abfae858"><path d="M 0.429688 0.03125 L 179.570312 0.03125 L 179.570312 32.96875 L 0.429688 32.96875 Z M 0.429688 0.03125 " clip-rule="nonzero"/></clipPath><clipPath id="941fcbf886"><path d="M 16.898438 0.03125 L 163.101562 0.03125 C 167.46875 0.03125 171.65625 1.769531 174.746094 4.855469 C 177.832031 7.945312 179.570312 12.132812 179.570312 16.5 C 179.570312 20.867188 177.832031 25.054688 174.746094 28.144531 C 171.65625 31.230469 167.46875 32.96875 163.101562 32.96875 L 16.898438 32.96875 C 12.53125 32.96875 8.34375 31.230469 5.253906 28.144531 C 2.167969 25.054688 0.429688 20.867188 0.429688 16.5 C 0.429688 12.132812 2.167969 7.945312 5.253906 4.855469 C 8.34375 1.769531 12.53125 0.03125 16.898438 0.03125 " clip-rule="nonzero"/></clipPath><clipPath id="1c68812ac4"><path d="M 147 0.03125 L 179.597656 0.03125 L 179.597656 32.996094 L 147 32.996094 Z M 147 0.03125 " clip-rule="nonzero"/></clipPath><clipPath id="46fcad80a6"><path d="M 146.632812 0.03125 L 179.597656 0.03125 L 179.597656 32.996094 L 146.632812 32.996094 Z M 146.632812 0.03125 " clip-rule="nonzero"/></clipPath></defs><g clip-path="url(#12abfae858)"><g clip-path="url(#941fcbf886)"><path fill="#7388d7" d="M 0.429688 0.03125 L 179.570312 0.03125 L 179.570312 32.96875 L 0.429688 32.96875 Z M 0.429688 0.03125 " fill-opacity="1" fill-rule="nonzero"/></g></g><g fill="#ffffff" fill-opacity="1"><g transform="translate(28.779902, 20.096391)"><g/></g></g><g fill="#ffffff" fill-opacity="1"><g transform="translate(31.870017, 20.096391)"><g><path d="M 6.4375 -5.5 C 6.269531 -6.03125 5.992188 -6.445312 5.609375 -6.75 C 5.222656 -7.050781 4.738281 -7.203125 4.15625 -7.203125 C 3.6875 -7.203125 3.253906 -7.078125 2.859375 -6.828125 C 2.472656 -6.585938 2.164062 -6.226562 1.9375 -5.75 C 1.707031 -5.28125 1.59375 -4.695312 1.59375 -4 C 1.59375 -3.3125 1.707031 -2.726562 1.9375 -2.25 C 2.175781 -1.769531 2.492188 -1.40625 2.890625 -1.15625 C 3.285156 -0.914062 3.726562 -0.796875 4.21875 -0.796875 C 4.664062 -0.796875 5.0625 -0.890625 5.40625 -1.078125 C 5.757812 -1.273438 6.035156 -1.546875 6.234375 -1.890625 C 6.429688 -2.242188 6.535156 -2.660156 6.546875 -3.140625 L 4.4375 -3.140625 L 4.4375 -4 L 7.484375 -4 L 7.484375 -3.140625 C 7.484375 -2.484375 7.34375 -1.910156 7.0625 -1.421875 C 6.78125 -0.929688 6.394531 -0.550781 5.90625 -0.28125 C 5.414062 -0.0195312 4.851562 0.109375 4.21875 0.109375 C 3.507812 0.109375 2.882812 -0.0546875 2.34375 -0.390625 C 1.8125 -0.722656 1.394531 -1.195312 1.09375 -1.8125 C 0.800781 -2.425781 0.65625 -3.15625 0.65625 -4 C 0.65625 -4.84375 0.800781 -5.570312 1.09375 -6.1875 C 1.394531 -6.800781 1.8125 -7.273438 2.34375 -7.609375 C 2.875 -7.941406 3.476562 -8.109375 4.15625 -8.109375 C 4.71875 -8.109375 5.226562 -8 5.6875 -7.78125 C 6.144531 -7.5625 6.523438 -7.253906 6.828125 -6.859375 C 7.140625 -6.472656 7.34375 -6.019531 7.4375 -5.5 Z M 6.4375 -5.5 "/></g></g></g><g fill="#ffffff" fill-opacity="1"><g transform="translate(40.037898, 20.096391)"><g><path d="M 3.28125 0.125 C 2.738281 0.125 2.265625 -0.00390625 1.859375 -0.265625 C 1.453125 -0.523438 1.132812 -0.882812 0.90625 -1.34375 C 0.675781 -1.8125 0.5625 -2.351562 0.5625 -2.96875 C 0.5625 -3.59375 0.675781 -4.140625 0.90625 -4.609375 C 1.132812 -5.078125 1.453125 -5.4375 1.859375 -5.6875 C 2.265625 -5.945312 2.738281 -6.078125 3.28125 -6.078125 C 3.820312 -6.078125 4.296875 -5.945312 4.703125 -5.6875 C 5.109375 -5.4375 5.425781 -5.078125 5.65625 -4.609375 C 5.882812 -4.140625 6 -3.59375 6 -2.96875 C 6 -2.351562 5.882812 -1.8125 5.65625 -1.34375 C 5.425781 -0.882812 5.109375 -0.523438 4.703125 -0.265625 C 4.296875 -0.00390625 3.820312 0.125 3.28125 0.125 Z M 3.28125 -0.703125 C 3.695312 -0.703125 4.035156 -0.804688 4.296875 -1.015625 C 4.566406 -1.234375 4.765625 -1.515625 4.890625 -1.859375 C 5.015625 -2.203125 5.078125 -2.570312 5.078125 -2.96875 C 5.078125 -3.375 5.015625 -3.75 4.890625 -4.09375 C 4.765625 -4.4375 4.566406 -4.710938 4.296875 -4.921875 C 4.035156 -5.140625 3.695312 -5.25 3.28125 -5.25 C 2.875 -5.25 2.535156 -5.140625 2.265625 -4.921875 C 2.003906 -4.710938 1.804688 -4.4375 1.671875 -4.09375 C 1.546875 -3.75 1.484375 -3.375 1.484375 -2.96875 C 1.484375 -2.570312 1.546875 -2.203125 1.671875 -1.859375 C 1.804688 -1.515625 2.003906 -1.234375 2.265625 -1.015625 C 2.535156 -0.804688 2.875 -0.703125 3.28125 -0.703125 Z M 3.28125 -0.703125 "/></g></g></g><g fill="#ffffff" fill-opacity="1"><g transform="translate(46.597197, 20.096391)"><g/></g></g><g fill="#ffffff" fill-opacity="1"><g transform="translate(49.689433, 20.096391)"><g><path d="M 3.453125 -6 L 3.453125 -5.21875 L 2.171875 -5.21875 L 2.171875 -1.71875 C 2.171875 -1.457031 2.207031 -1.257812 2.28125 -1.125 C 2.363281 -1 2.460938 -0.914062 2.578125 -0.875 C 2.703125 -0.832031 2.832031 -0.8125 2.96875 -0.8125 C 3.070312 -0.8125 3.15625 -0.816406 3.21875 -0.828125 C 3.28125 -0.835938 3.332031 -0.847656 3.375 -0.859375 L 3.5625 -0.03125 C 3.5 -0.0078125 3.410156 0.0078125 3.296875 0.03125 C 3.191406 0.0625 3.050781 0.078125 2.875 0.078125 C 2.613281 0.078125 2.359375 0.0195312 2.109375 -0.09375 C 1.859375 -0.207031 1.648438 -0.378906 1.484375 -0.609375 C 1.328125 -0.835938 1.25 -1.125 1.25 -1.46875 L 1.25 -5.21875 L 0.34375 -5.21875 L 0.34375 -6 L 1.25 -6 L 1.25 -7.4375 L 2.171875 -7.4375 L 2.171875 -6 Z M 3.453125 -6 "/></g></g></g><g fill="#ffffff" fill-opacity="1"><g transform="translate(53.687479, 20.096391)"><g><path d="M 3.28125 0.125 C 2.738281 0.125 2.265625 -0.00390625 1.859375 -0.265625 C 1.453125 -0.523438 1.132812 -0.882812 0.90625 -1.34375 C 0.675781 -1.8125 0.5625 -2.351562 0.5625 -2.96875 C 0.5625 -3.59375 0.675781 -4.140625 0.90625 -4.609375 C 1.132812 -5.078125 1.453125 -5.4375 1.859375 -5.6875 C 2.265625 -5.945312 2.738281 -6.078125 3.28125 -6.078125 C 3.820312 -6.078125 4.296875 -5.945312 4.703125 -5.6875 C 5.109375 -5.4375 5.425781 -5.078125 5.65625 -4.609375 C 5.882812 -4.140625 6 -3.59375 6 -2.96875 C 6 -2.351562 5.882812 -1.8125 5.65625 -1.34375 C 5.425781 -0.882812 5.109375 -0.523438 4.703125 -0.265625 C 4.296875 -0.00390625 3.820312 0.125 3.28125 0.125 Z M 3.28125 -0.703125 C 3.695312 -0.703125 4.035156 -0.804688 4.296875 -1.015625 C 4.566406 -1.234375 4.765625 -1.515625 4.890625 -1.859375 C 5.015625 -2.203125 5.078125 -2.570312 5.078125 -2.96875 C 5.078125 -3.375 5.015625 -3.75 4.890625 -4.09375 C 4.765625 -4.4375 4.566406 -4.710938 4.296875 -4.921875 C 4.035156 -5.140625 3.695312 -5.25 3.28125 -5.25 C 2.875 -5.25 2.535156 -5.140625 2.265625 -4.921875 C 2.003906 -4.710938 1.804688 -4.4375 1.671875 -4.09375 C 1.546875 -3.75 1.484375 -3.375 1.484375 -2.96875 C 1.484375 -2.570312 1.546875 -2.203125 1.671875 -1.859375 C 1.804688 -1.515625 2.003906 -1.234375 2.265625 -1.015625 C 2.535156 -0.804688 2.875 -0.703125 3.28125 -0.703125 Z M 3.28125 -0.703125 "/></g></g></g><g fill="#ffffff" fill-opacity="1"><g transform="translate(60.246778, 20.096391)"><g/></g></g><g fill="#ffffff" fill-opacity="1"><g transform="translate(63.339014, 20.096391)"><g><path d="M 3.4375 0 L 0.96875 0 L 0.96875 -8 L 3.546875 -8 C 4.328125 -8 4.992188 -7.835938 5.546875 -7.515625 C 6.097656 -7.203125 6.519531 -6.75 6.8125 -6.15625 C 7.101562 -5.5625 7.25 -4.847656 7.25 -4.015625 C 7.25 -3.179688 7.097656 -2.460938 6.796875 -1.859375 C 6.503906 -1.265625 6.070312 -0.804688 5.5 -0.484375 C 4.9375 -0.160156 4.25 0 3.4375 0 Z M 1.9375 -0.859375 L 3.375 -0.859375 C 4.363281 -0.859375 5.097656 -1.140625 5.578125 -1.703125 C 6.066406 -2.265625 6.3125 -3.035156 6.3125 -4.015625 C 6.3125 -4.984375 6.070312 -5.742188 5.59375 -6.296875 C 5.125 -6.859375 4.421875 -7.140625 3.484375 -7.140625 L 1.9375 -7.140625 Z M 1.9375 -0.859375 "/></g></g></g><g fill="#ffffff" fill-opacity="1"><g transform="translate(71.241405, 20.096391)"><g><path d="M 2.609375 0.140625 C 2.234375 0.140625 1.890625 0.0664062 1.578125 -0.078125 C 1.265625 -0.222656 1.015625 -0.429688 0.828125 -0.703125 C 0.648438 -0.984375 0.5625 -1.316406 0.5625 -1.703125 C 0.5625 -2.046875 0.628906 -2.320312 0.765625 -2.53125 C 0.898438 -2.75 1.082031 -2.921875 1.3125 -3.046875 C 1.539062 -3.171875 1.789062 -3.265625 2.0625 -3.328125 C 2.332031 -3.390625 2.609375 -3.4375 2.890625 -3.46875 C 3.253906 -3.519531 3.550781 -3.554688 3.78125 -3.578125 C 4.007812 -3.597656 4.175781 -3.640625 4.28125 -3.703125 C 4.382812 -3.765625 4.4375 -3.867188 4.4375 -4.015625 L 4.4375 -4.046875 C 4.4375 -4.429688 4.332031 -4.726562 4.125 -4.9375 C 3.914062 -5.15625 3.597656 -5.265625 3.171875 -5.265625 C 2.734375 -5.265625 2.390625 -5.164062 2.140625 -4.96875 C 1.890625 -4.78125 1.710938 -4.578125 1.609375 -4.359375 L 0.734375 -4.671875 C 0.890625 -5.035156 1.097656 -5.316406 1.359375 -5.515625 C 1.617188 -5.722656 1.90625 -5.867188 2.21875 -5.953125 C 2.53125 -6.035156 2.835938 -6.078125 3.140625 -6.078125 C 3.335938 -6.078125 3.5625 -6.050781 3.8125 -6 C 4.0625 -5.957031 4.300781 -5.863281 4.53125 -5.71875 C 4.769531 -5.582031 4.96875 -5.375 5.125 -5.09375 C 5.28125 -4.8125 5.359375 -4.429688 5.359375 -3.953125 L 5.359375 0 L 4.4375 0 L 4.4375 -0.8125 L 4.390625 -0.8125 C 4.328125 -0.6875 4.222656 -0.546875 4.078125 -0.390625 C 3.929688 -0.242188 3.738281 -0.117188 3.5 -0.015625 C 3.257812 0.0859375 2.960938 0.140625 2.609375 0.140625 Z M 2.75 -0.6875 C 3.113281 -0.6875 3.421875 -0.757812 3.671875 -0.90625 C 3.921875 -1.050781 4.109375 -1.234375 4.234375 -1.453125 C 4.367188 -1.679688 4.4375 -1.921875 4.4375 -2.171875 L 4.4375 -3.015625 C 4.394531 -2.972656 4.304688 -2.929688 4.171875 -2.890625 C 4.046875 -2.847656 3.894531 -2.8125 3.71875 -2.78125 C 3.550781 -2.757812 3.390625 -2.738281 3.234375 -2.71875 C 3.078125 -2.695312 2.945312 -2.679688 2.84375 -2.671875 C 2.601562 -2.640625 2.378906 -2.585938 2.171875 -2.515625 C 1.960938 -2.453125 1.796875 -2.351562 1.671875 -2.21875 C 1.546875 -2.082031 1.484375 -1.894531 1.484375 -1.65625 C 1.484375 -1.332031 1.601562 -1.085938 1.84375 -0.921875 C 2.082031 -0.765625 2.382812 -0.6875 2.75 -0.6875 Z M 2.75 -0.6875 "/></g></g></g><g fill="#ffffff" fill-opacity="1"><g transform="translate(77.4415, 20.096391)"><g><path d="M 5.09375 -4.65625 L 4.265625 -4.421875 C 4.179688 -4.628906 4.046875 -4.820312 3.859375 -5 C 3.671875 -5.1875 3.375 -5.28125 2.96875 -5.28125 C 2.601562 -5.28125 2.296875 -5.195312 2.046875 -5.03125 C 1.804688 -4.863281 1.6875 -4.648438 1.6875 -4.390625 C 1.6875 -4.160156 1.769531 -3.976562 1.9375 -3.84375 C 2.101562 -3.71875 2.363281 -3.609375 2.71875 -3.515625 L 3.609375 -3.296875 C 4.671875 -3.035156 5.203125 -2.492188 5.203125 -1.671875 C 5.203125 -1.328125 5.101562 -1.019531 4.90625 -0.75 C 4.707031 -0.476562 4.429688 -0.265625 4.078125 -0.109375 C 3.734375 0.046875 3.328125 0.125 2.859375 0.125 C 2.242188 0.125 1.734375 -0.00390625 1.328125 -0.265625 C 0.929688 -0.535156 0.679688 -0.925781 0.578125 -1.4375 L 1.453125 -1.65625 C 1.617188 -1.007812 2.082031 -0.6875 2.84375 -0.6875 C 3.269531 -0.6875 3.609375 -0.773438 3.859375 -0.953125 C 4.117188 -1.140625 4.25 -1.363281 4.25 -1.625 C 4.25 -2.050781 3.953125 -2.332031 3.359375 -2.46875 L 2.359375 -2.703125 C 1.804688 -2.835938 1.398438 -3.039062 1.140625 -3.3125 C 0.890625 -3.582031 0.765625 -3.925781 0.765625 -4.34375 C 0.765625 -4.6875 0.859375 -4.988281 1.046875 -5.25 C 1.242188 -5.507812 1.507812 -5.710938 1.84375 -5.859375 C 2.175781 -6.003906 2.550781 -6.078125 2.96875 -6.078125 C 3.5625 -6.078125 4.023438 -5.945312 4.359375 -5.6875 C 4.703125 -5.425781 4.945312 -5.082031 5.09375 -4.65625 Z M 5.09375 -4.65625 "/></g></g></g><g fill="#ffffff" fill-opacity="1"><g transform="translate(83.188691, 20.096391)"><g><path d="M 1.765625 -3.609375 L 1.765625 0 L 0.84375 0 L 0.84375 -8 L 1.765625 -8 L 1.765625 -5.0625 L 1.84375 -5.0625 C 1.988281 -5.375 2.203125 -5.617188 2.484375 -5.796875 C 2.765625 -5.984375 3.140625 -6.078125 3.609375 -6.078125 C 4.222656 -6.078125 4.71875 -5.890625 5.09375 -5.515625 C 5.46875 -5.148438 5.65625 -4.582031 5.65625 -3.8125 L 5.65625 0 L 4.734375 0 L 4.734375 -3.75 C 4.734375 -4.226562 4.609375 -4.597656 4.359375 -4.859375 C 4.117188 -5.117188 3.78125 -5.25 3.34375 -5.25 C 2.882812 -5.25 2.503906 -5.101562 2.203125 -4.8125 C 1.910156 -4.53125 1.765625 -4.128906 1.765625 -3.609375 Z M 1.765625 -3.609375 "/></g></g></g><g fill="#ffffff" fill-opacity="1"><g transform="translate(89.685516, 20.096391)"><g><path d="M 0.96875 0 L 0.96875 -8 L 1.890625 -8 L 1.890625 -5.046875 L 1.96875 -5.046875 C 2.039062 -5.148438 2.132812 -5.28125 2.25 -5.4375 C 2.375 -5.601562 2.550781 -5.75 2.78125 -5.875 C 3.007812 -6.007812 3.316406 -6.078125 3.703125 -6.078125 C 4.210938 -6.078125 4.660156 -5.953125 5.046875 -5.703125 C 5.429688 -5.453125 5.726562 -5.09375 5.9375 -4.625 C 6.15625 -4.164062 6.265625 -3.617188 6.265625 -2.984375 C 6.265625 -2.347656 6.15625 -1.796875 5.9375 -1.328125 C 5.726562 -0.867188 5.429688 -0.507812 5.046875 -0.25 C 4.660156 0 4.21875 0.125 3.71875 0.125 C 3.332031 0.125 3.023438 0.0625 2.796875 -0.0625 C 2.566406 -0.195312 2.390625 -0.347656 2.265625 -0.515625 C 2.140625 -0.679688 2.039062 -0.816406 1.96875 -0.921875 L 1.859375 -0.921875 L 1.859375 0 Z M 1.875 -3 C 1.875 -2.320312 2.019531 -1.769531 2.3125 -1.34375 C 2.613281 -0.914062 3.039062 -0.703125 3.59375 -0.703125 C 3.976562 -0.703125 4.300781 -0.800781 4.5625 -1 C 4.820312 -1.207031 5.015625 -1.484375 5.140625 -1.828125 C 5.273438 -2.179688 5.34375 -2.570312 5.34375 -3 C 5.34375 -3.425781 5.273438 -3.804688 5.140625 -4.140625 C 5.015625 -4.484375 4.820312 -4.753906 4.5625 -4.953125 C 4.3125 -5.148438 3.988281 -5.25 3.59375 -5.25 C 3.03125 -5.25 2.601562 -5.039062 2.3125 -4.625 C 2.019531 -4.21875 1.875 -3.675781 1.875 -3 Z M 1.875 -3 "/></g></g></g><g fill="#ffffff" fill-opacity="1"><g transform="translate(96.510306, 20.096391)"><g><path d="M 3.28125 0.125 C 2.738281 0.125 2.265625 -0.00390625 1.859375 -0.265625 C 1.453125 -0.523438 1.132812 -0.882812 0.90625 -1.34375 C 0.675781 -1.8125 0.5625 -2.351562 0.5625 -2.96875 C 0.5625 -3.59375 0.675781 -4.140625 0.90625 -4.609375 C 1.132812 -5.078125 1.453125 -5.4375 1.859375 -5.6875 C 2.265625 -5.945312 2.738281 -6.078125 3.28125 -6.078125 C 3.820312 -6.078125 4.296875 -5.945312 4.703125 -5.6875 C 5.109375 -5.4375 5.425781 -5.078125 5.65625 -4.609375 C 5.882812 -4.140625 6 -3.59375 6 -2.96875 C 6 -2.351562 5.882812 -1.8125 5.65625 -1.34375 C 5.425781 -0.882812 5.109375 -0.523438 4.703125 -0.265625 C 4.296875 -0.00390625 3.820312 0.125 3.28125 0.125 Z M 3.28125 -0.703125 C 3.695312 -0.703125 4.035156 -0.804688 4.296875 -1.015625 C 4.566406 -1.234375 4.765625 -1.515625 4.890625 -1.859375 C 5.015625 -2.203125 5.078125 -2.570312 5.078125 -2.96875 C 5.078125 -3.375 5.015625 -3.75 4.890625 -4.09375 C 4.765625 -4.4375 4.566406 -4.710938 4.296875 -4.921875 C 4.035156 -5.140625 3.695312 -5.25 3.28125 -5.25 C 2.875 -5.25 2.535156 -5.140625 2.265625 -4.921875 C 2.003906 -4.710938 1.804688 -4.4375 1.671875 -4.09375 C 1.546875 -3.75 1.484375 -3.375 1.484375 -2.96875 C 1.484375 -2.570312 1.546875 -2.203125 1.671875 -1.859375 C 1.804688 -1.515625 2.003906 -1.234375 2.265625 -1.015625 C 2.535156 -0.804688 2.875 -0.703125 3.28125 -0.703125 Z M 3.28125 -0.703125 "/></g></g></g><g fill="#ffffff" fill-opacity="1"><g transform="translate(103.069606, 20.096391)"><g><path d="M 2.609375 0.140625 C 2.234375 0.140625 1.890625 0.0664062 1.578125 -0.078125 C 1.265625 -0.222656 1.015625 -0.429688 0.828125 -0.703125 C 0.648438 -0.984375 0.5625 -1.316406 0.5625 -1.703125 C 0.5625 -2.046875 0.628906 -2.320312 0.765625 -2.53125 C 0.898438 -2.75 1.082031 -2.921875 1.3125 -3.046875 C 1.539062 -3.171875 1.789062 -3.265625 2.0625 -3.328125 C 2.332031 -3.390625 2.609375 -3.4375 2.890625 -3.46875 C 3.253906 -3.519531 3.550781 -3.554688 3.78125 -3.578125 C 4.007812 -3.597656 4.175781 -3.640625 4.28125 -3.703125 C 4.382812 -3.765625 4.4375 -3.867188 4.4375 -4.015625 L 4.4375 -4.046875 C 4.4375 -4.429688 4.332031 -4.726562 4.125 -4.9375 C 3.914062 -5.15625 3.597656 -5.265625 3.171875 -5.265625 C 2.734375 -5.265625 2.390625 -5.164062 2.140625 -4.96875 C 1.890625 -4.78125 1.710938 -4.578125 1.609375 -4.359375 L 0.734375 -4.671875 C 0.890625 -5.035156 1.097656 -5.316406 1.359375 -5.515625 C 1.617188 -5.722656 1.90625 -5.867188 2.21875 -5.953125 C 2.53125 -6.035156 2.835938 -6.078125 3.140625 -6.078125 C 3.335938 -6.078125 3.5625 -6.050781 3.8125 -6 C 4.0625 -5.957031 4.300781 -5.863281 4.53125 -5.71875 C 4.769531 -5.582031 4.96875 -5.375 5.125 -5.09375 C 5.28125 -4.8125 5.359375 -4.429688 5.359375 -3.953125 L 5.359375 0 L 4.4375 0 L 4.4375 -0.8125 L 4.390625 -0.8125 C 4.328125 -0.6875 4.222656 -0.546875 4.078125 -0.390625 C 3.929688 -0.242188 3.738281 -0.117188 3.5 -0.015625 C 3.257812 0.0859375 2.960938 0.140625 2.609375 0.140625 Z M 2.75 -0.6875 C 3.113281 -0.6875 3.421875 -0.757812 3.671875 -0.90625 C 3.921875 -1.050781 4.109375 -1.234375 4.234375 -1.453125 C 4.367188 -1.679688 4.4375 -1.921875 4.4375 -2.171875 L 4.4375 -3.015625 C 4.394531 -2.972656 4.304688 -2.929688 4.171875 -2.890625 C 4.046875 -2.847656 3.894531 -2.8125 3.71875 -2.78125 C 3.550781 -2.757812 3.390625 -2.738281 3.234375 -2.71875 C 3.078125 -2.695312 2.945312 -2.679688 2.84375 -2.671875 C 2.601562 -2.640625 2.378906 -2.585938 2.171875 -2.515625 C 1.960938 -2.453125 1.796875 -2.351562 1.671875 -2.21875 C 1.546875 -2.082031 1.484375 -1.894531 1.484375 -1.65625 C 1.484375 -1.332031 1.601562 -1.085938 1.84375 -0.921875 C 2.082031 -0.765625 2.382812 -0.6875 2.75 -0.6875 Z M 2.75 -0.6875 "/></g></g></g><g fill="#ffffff" fill-opacity="1"><g transform="translate(109.269702, 20.096391)"><g><path d="M 0.84375 0 L 0.84375 -6 L 1.734375 -6 L 1.734375 -5.09375 L 1.796875 -5.09375 C 1.898438 -5.394531 2.09375 -5.632812 2.375 -5.8125 C 2.664062 -6 2.992188 -6.09375 3.359375 -6.09375 C 3.523438 -6.09375 3.671875 -6.070312 3.796875 -6.03125 C 3.921875 -6 4.03125 -5.945312 4.125 -5.875 L 3.8125 -5.09375 C 3.75 -5.125 3.671875 -5.148438 3.578125 -5.171875 C 3.492188 -5.191406 3.394531 -5.203125 3.28125 -5.203125 C 2.84375 -5.203125 2.476562 -5.066406 2.1875 -4.796875 C 1.90625 -4.535156 1.765625 -4.203125 1.765625 -3.796875 L 1.765625 0 Z M 0.84375 0 "/></g></g></g><g fill="#ffffff" fill-opacity="1"><g transform="translate(113.486388, 20.096391)"><g><path d="M 3.109375 0.125 C 2.609375 0.125 2.164062 0 1.78125 -0.25 C 1.40625 -0.507812 1.109375 -0.867188 0.890625 -1.328125 C 0.671875 -1.796875 0.5625 -2.347656 0.5625 -2.984375 C 0.5625 -3.617188 0.671875 -4.164062 0.890625 -4.625 C 1.109375 -5.09375 1.410156 -5.453125 1.796875 -5.703125 C 2.179688 -5.953125 2.625 -6.078125 3.125 -6.078125 C 3.519531 -6.078125 3.828125 -6.007812 4.046875 -5.875 C 4.273438 -5.75 4.453125 -5.601562 4.578125 -5.4375 C 4.703125 -5.28125 4.796875 -5.148438 4.859375 -5.046875 L 4.9375 -5.046875 L 4.9375 -8 L 5.859375 -8 L 5.859375 0 L 4.96875 0 L 4.96875 -0.921875 L 4.859375 -0.921875 C 4.796875 -0.816406 4.703125 -0.679688 4.578125 -0.515625 C 4.453125 -0.347656 4.269531 -0.195312 4.03125 -0.0625 C 3.800781 0.0625 3.492188 0.125 3.109375 0.125 Z M 3.234375 -0.703125 C 3.785156 -0.703125 4.207031 -0.914062 4.5 -1.34375 C 4.800781 -1.769531 4.953125 -2.320312 4.953125 -3 C 4.953125 -3.675781 4.804688 -4.21875 4.515625 -4.625 C 4.222656 -5.039062 3.796875 -5.25 3.234375 -5.25 C 2.847656 -5.25 2.523438 -5.148438 2.265625 -4.953125 C 2.003906 -4.753906 1.804688 -4.484375 1.671875 -4.140625 C 1.546875 -3.804688 1.484375 -3.425781 1.484375 -3 C 1.484375 -2.570312 1.546875 -2.179688 1.671875 -1.828125 C 1.804688 -1.484375 2.003906 -1.207031 2.265625 -1 C 2.523438 -0.800781 2.847656 -0.703125 3.234375 -0.703125 Z M 3.234375 -0.703125 "/></g></g></g><g fill="#ffffff" fill-opacity="1"><g transform="translate(120.307757, 20.096391)"><g/></g></g><g fill="#ffffff" fill-opacity="1"><g transform="translate(123.399992, 20.096391)"><g/></g></g><g fill="#ffffff" fill-opacity="1"><g transform="translate(126.492228, 20.096391)"><g/></g></g><g fill="#ffffff" fill-opacity="1"><g transform="translate(129.584464, 20.096391)"><g/></g></g><g fill="#ffffff" fill-opacity="1"><g transform="translate(132.6767, 20.096391)"><g/></g></g><g fill="#ffffff" fill-opacity="1"><g transform="translate(135.768936, 20.096391)"><g/></g></g><g fill="#ffffff" fill-opacity="1"><g transform="translate(138.861172, 20.096391)"><g/></g></g><g fill="#ffffff" fill-opacity="1"><g transform="translate(141.953407, 20.096391)"><g/></g></g><g fill="#ffffff" fill-opacity="1"><g transform="translate(145.045643, 20.096391)"><g/></g></g><g fill="#ffffff" fill-opacity="1"><g transform="translate(148.137879, 20.096391)"><g/></g></g><g clip-path="url(#1c68812ac4)"><path fill="#ffffff" d="M 179.097656 16.511719 C 179.097656 17.035156 179.070312 17.558594 179.019531 18.082031 C 178.96875 18.601562 178.890625 19.117188 178.789062 19.632812 C 178.6875 20.144531 178.558594 20.652344 178.410156 21.152344 C 178.257812 21.652344 178.082031 22.144531 177.878906 22.628906 C 177.679688 23.113281 177.457031 23.585938 177.210938 24.046875 C 176.960938 24.507812 176.695312 24.957031 176.402344 25.390625 C 176.113281 25.828125 175.800781 26.246094 175.46875 26.652344 C 175.136719 27.054688 174.785156 27.445312 174.414062 27.8125 C 174.046875 28.183594 173.65625 28.535156 173.253906 28.867188 C 172.847656 29.199219 172.429688 29.511719 171.992188 29.800781 C 171.558594 30.09375 171.109375 30.359375 170.648438 30.609375 C 170.1875 30.855469 169.714844 31.078125 169.230469 31.277344 C 168.746094 31.480469 168.253906 31.65625 167.753906 31.808594 C 167.253906 31.957031 166.746094 32.085938 166.234375 32.1875 C 165.71875 32.289062 165.203125 32.367188 164.683594 32.417969 C 164.160156 32.46875 163.636719 32.496094 163.113281 32.496094 C 162.59375 32.496094 162.070312 32.46875 161.546875 32.417969 C 161.027344 32.367188 160.511719 32.289062 159.996094 32.1875 C 159.484375 32.085938 158.976562 31.957031 158.476562 31.808594 C 157.976562 31.65625 157.484375 31.480469 157 31.277344 C 156.515625 31.078125 156.042969 30.855469 155.582031 30.609375 C 155.121094 30.359375 154.671875 30.09375 154.238281 29.800781 C 153.800781 29.511719 153.382812 29.199219 152.976562 28.867188 C 152.570312 28.535156 152.183594 28.183594 151.816406 27.8125 C 151.445312 27.445312 151.09375 27.054688 150.761719 26.652344 C 150.429688 26.246094 150.117188 25.828125 149.828125 25.390625 C 149.535156 24.957031 149.269531 24.507812 149.019531 24.046875 C 148.773438 23.585938 148.550781 23.113281 148.351562 22.628906 C 148.148438 22.144531 147.972656 21.652344 147.820312 21.152344 C 147.671875 20.652344 147.542969 20.144531 147.441406 19.632812 C 147.339844 19.117188 147.261719 18.601562 147.210938 18.082031 C 147.160156 17.558594 147.132812 17.035156 147.132812 16.511719 C 147.132812 15.992188 147.160156 15.46875 147.210938 14.945312 C 147.261719 14.425781 147.339844 13.910156 147.441406 13.394531 C 147.542969 12.882812 147.671875 12.375 147.820312 11.875 C 147.972656 11.375 148.148438 10.882812 148.351562 10.398438 C 148.550781 9.914062 148.773438 9.441406 149.019531 8.980469 C 149.269531 8.519531 149.535156 8.070312 149.828125 7.636719 C 150.117188 7.199219 150.429688 6.78125 150.761719 6.375 C 151.09375 5.96875 151.445312 5.582031 151.816406 5.214844 C 152.183594 4.84375 152.570312 4.492188 152.976562 4.160156 C 153.382812 3.828125 153.800781 3.515625 154.238281 3.226562 C 154.671875 2.933594 155.121094 2.667969 155.582031 2.417969 C 156.042969 2.171875 156.515625 1.949219 157 1.75 C 157.484375 1.546875 157.976562 1.371094 158.476562 1.21875 C 158.976562 1.070312 159.484375 0.941406 159.996094 0.839844 C 160.511719 0.738281 161.027344 0.660156 161.546875 0.609375 C 162.070312 0.558594 162.59375 0.53125 163.113281 0.53125 C 163.636719 0.53125 164.160156 0.558594 164.683594 0.609375 C 165.203125 0.660156 165.71875 0.738281 166.234375 0.839844 C 166.746094 0.941406 167.253906 1.070312 167.753906 1.21875 C 168.253906 1.371094 168.746094 1.546875 169.230469 1.75 C 169.714844 1.949219 170.1875 2.171875 170.648438 2.417969 C 171.109375 2.667969 171.558594 2.933594 171.992188 3.226562 C 172.429688 3.515625 172.847656 3.828125 173.253906 4.160156 C 173.65625 4.492188 174.046875 4.84375 174.414062 5.214844 C 174.785156 5.582031 175.136719 5.96875 175.46875 6.375 C 175.800781 6.78125 176.113281 7.199219 176.402344 7.636719 C 176.695312 8.070312 176.960938 8.519531 177.210938 8.980469 C 177.457031 9.441406 177.679688 9.914062 177.878906 10.398438 C 178.082031 10.882812 178.257812 11.375 178.410156 11.875 C 178.558594 12.375 178.6875 12.882812 178.789062 13.394531 C 178.890625 13.910156 178.96875 14.425781 179.019531 14.945312 C 179.070312 15.46875 179.097656 15.992188 179.097656 16.511719 Z M 179.097656 16.511719 " fill-opacity="1" fill-rule="nonzero"/></g><g clip-path="url(#46fcad80a6)"><path fill="#95a8ed" d="M 163.113281 32.996094 C 154.027344 32.996094 146.632812 25.601562 146.632812 16.511719 C 146.632812 7.425781 154.027344 0.03125 163.113281 0.03125 C 172.203125 0.03125 179.597656 7.425781 179.597656 16.511719 C 179.597656 25.601562 172.203125 32.996094 163.113281 32.996094 Z M 163.113281 1.03125 C 154.578125 1.03125 147.632812 7.976562 147.632812 16.511719 C 147.632812 25.050781 154.578125 31.996094 163.113281 31.996094 C 171.652344 31.996094 178.597656 25.050781 178.597656 16.511719 C 178.597656 7.976562 171.652344 1.03125 163.113281 1.03125 Z M 163.113281 1.03125 " fill-opacity="1" fill-rule="nonzero"/></g><path fill="#2e2e2e" d="M 161.792969 22.746094 L 167.878906 16.425781 L 161.78125 10.28125 L 160.359375 11.6875 L 165.085938 16.449219 L 160.351562 21.363281 Z M 161.792969 22.746094 " fill-opacity="1" fill-rule="nonzero"/></svg>