<svg xmlns="http://www.w3.org/2000/svg" xmlns:xlink="http://www.w3.org/1999/xlink" width="240" zoomAndPan="magnify" viewBox="0 0 180 32.999998" height="44" preserveAspectRatio="xMidYMid meet" version="1.0"><defs><g/><clipPath id="4c7287f0c7"><path d="M 0.308594 0.0117188 L 179.691406 0.0117188 L 179.691406 32.988281 L 0.308594 32.988281 Z M 0.308594 0.0117188 " clip-rule="nonzero"/></clipPath><clipPath id="1373da4488"><path d="M 16.796875 0.0117188 L 163.203125 0.0117188 C 167.574219 0.0117188 171.769531 1.746094 174.863281 4.839844 C 177.957031 7.933594 179.691406 12.125 179.691406 16.5 C 179.691406 20.875 177.957031 25.066406 174.863281 28.160156 C 171.769531 31.253906 167.574219 32.988281 163.203125 32.988281 L 16.796875 32.988281 C 12.425781 32.988281 8.230469 31.253906 5.136719 28.160156 C 2.042969 25.066406 0.308594 20.875 0.308594 16.5 C 0.308594 12.125 2.042969 7.933594 5.136719 4.839844 C 8.230469 1.746094 12.425781 0.0117188 16.796875 0.0117188 " clip-rule="nonzero"/></clipPath><clipPath id="3d683039d4"><path d="M 147 0.0117188 L 179.71875 0.0117188 L 179.71875 33 L 147 33 Z M 147 0.0117188 " clip-rule="nonzero"/></clipPath><clipPath id="b36bfdd8d0"><path d="M 146.714844 0.0117188 L 179.71875 0.0117188 L 179.71875 33 L 146.714844 33 Z M 146.714844 0.0117188 " clip-rule="nonzero"/></clipPath></defs><g clip-path="url(#4c7287f0c7)"><g clip-path="url(#1373da4488)"><path fill="#95a8ed" d="M 0.308594 0.0117188 L 179.691406 0.0117188 L 179.691406 32.988281 L 0.308594 32.988281 Z M 0.308594 0.0117188 " fill-opacity="1" fill-rule="nonzero"/></g></g><g fill="#ffffff" fill-opacity="1"><g transform="translate(28.818453, 20.10137)"><g/></g></g><g fill="#ffffff" fill-opacity="1"><g transform="translate(31.901635, 20.10137)"><g><path d="M 6.4375 -5.5 C 6.269531 -6.03125 5.992188 -6.445312 5.609375 -6.75 C 5.222656 -7.050781 4.738281 -7.203125 4.15625 -7.203125 C 3.6875 -7.203125 3.253906 -7.078125 2.859375 -6.828125 C 2.472656 -6.585938 2.164062 -6.226562 1.9375 -5.75 C 1.707031 -5.28125 1.59375 -4.695312 1.59375 -4 C 1.59375 -3.3125 1.707031 -2.726562 1.9375 -2.25 C 2.175781 -1.769531 2.492188 -1.40625 2.890625 -1.15625 C 3.285156 -0.914062 3.726562 -0.796875 4.21875 -0.796875 C 4.664062 -0.796875 5.0625 -0.890625 5.40625 -1.078125 C 5.757812 -1.273438 6.035156 -1.546875 6.234375 -1.890625 C 6.429688 -2.242188 6.535156 -2.660156 6.546875 -3.140625 L 4.4375 -3.140625 L 4.4375 -4 L 7.484375 -4 L 7.484375 -3.140625 C 7.484375 -2.484375 7.34375 -1.910156 7.0625 -1.421875 C 6.78125 -0.929688 6.394531 -0.550781 5.90625 -0.28125 C 5.414062 -0.0195312 4.851562 0.109375 4.21875 0.109375 C 3.507812 0.109375 2.882812 -0.0546875 2.34375 -0.390625 C 1.8125 -0.722656 1.394531 -1.195312 1.09375 -1.8125 C 0.800781 -2.425781 0.65625 -3.15625 0.65625 -4 C 0.65625 -4.84375 0.800781 -5.570312 1.09375 -6.1875 C 1.394531 -6.800781 1.8125 -7.273438 2.34375 -7.609375 C 2.875 -7.941406 3.476562 -8.109375 4.15625 -8.109375 C 4.71875 -8.109375 5.226562 -8 5.6875 -7.78125 C 6.144531 -7.5625 6.523438 -7.253906 6.828125 -6.859375 C 7.140625 -6.472656 7.34375 -6.019531 7.4375 -5.5 Z M 6.4375 -5.5 "/></g></g></g><g fill="#ffffff" fill-opacity="1"><g transform="translate(40.064009, 20.10137)"><g><path d="M 3.28125 0.125 C 2.738281 0.125 2.265625 -0.00390625 1.859375 -0.265625 C 1.453125 -0.523438 1.132812 -0.882812 0.90625 -1.34375 C 0.675781 -1.8125 0.5625 -2.351562 0.5625 -2.96875 C 0.5625 -3.59375 0.675781 -4.140625 0.90625 -4.609375 C 1.132812 -5.078125 1.453125 -5.4375 1.859375 -5.6875 C 2.265625 -5.945312 2.738281 -6.078125 3.28125 -6.078125 C 3.820312 -6.078125 4.296875 -5.945312 4.703125 -5.6875 C 5.109375 -5.4375 5.425781 -5.078125 5.65625 -4.609375 C 5.882812 -4.140625 6 -3.59375 6 -2.96875 C 6 -2.351562 5.882812 -1.8125 5.65625 -1.34375 C 5.425781 -0.882812 5.109375 -0.523438 4.703125 -0.265625 C 4.296875 -0.00390625 3.820312 0.125 3.28125 0.125 Z M 3.28125 -0.703125 C 3.695312 -0.703125 4.035156 -0.804688 4.296875 -1.015625 C 4.566406 -1.234375 4.765625 -1.515625 4.890625 -1.859375 C 5.015625 -2.203125 5.078125 -2.570312 5.078125 -2.96875 C 5.078125 -3.375 5.015625 -3.75 4.890625 -4.09375 C 4.765625 -4.4375 4.566406 -4.710938 4.296875 -4.921875 C 4.035156 -5.140625 3.695312 -5.25 3.28125 -5.25 C 2.875 -5.25 2.535156 -5.140625 2.265625 -4.921875 C 2.003906 -4.710938 1.804688 -4.4375 1.671875 -4.09375 C 1.546875 -3.75 1.484375 -3.375 1.484375 -2.96875 C 1.484375 -2.570312 1.546875 -2.203125 1.671875 -1.859375 C 1.804688 -1.515625 2.003906 -1.234375 2.265625 -1.015625 C 2.535156 -0.804688 2.875 -0.703125 3.28125 -0.703125 Z M 3.28125 -0.703125 "/></g></g></g><g fill="#ffffff" fill-opacity="1"><g transform="translate(46.61888, 20.10137)"><g/></g></g><g fill="#ffffff" fill-opacity="1"><g transform="translate(49.709036, 20.10137)"><g><path d="M 3.453125 -6 L 3.453125 -5.21875 L 2.171875 -5.21875 L 2.171875 -1.71875 C 2.171875 -1.457031 2.207031 -1.257812 2.28125 -1.125 C 2.363281 -1 2.460938 -0.914062 2.578125 -0.875 C 2.703125 -0.832031 2.832031 -0.8125 2.96875 -0.8125 C 3.070312 -0.8125 3.15625 -0.816406 3.21875 -0.828125 C 3.28125 -0.835938 3.332031 -0.847656 3.375 -0.859375 L 3.5625 -0.03125 C 3.5 -0.0078125 3.410156 0.0078125 3.296875 0.03125 C 3.191406 0.0625 3.050781 0.078125 2.875 0.078125 C 2.613281 0.078125 2.359375 0.0195312 2.109375 -0.09375 C 1.859375 -0.207031 1.648438 -0.378906 1.484375 -0.609375 C 1.328125 -0.835938 1.25 -1.125 1.25 -1.46875 L 1.25 -5.21875 L 0.34375 -5.21875 L 0.34375 -6 L 1.25 -6 L 1.25 -7.4375 L 2.171875 -7.4375 L 2.171875 -6 Z M 3.453125 -6 "/></g></g></g><g fill="#ffffff" fill-opacity="1"><g transform="translate(53.704385, 20.10137)"><g><path d="M 3.28125 0.125 C 2.738281 0.125 2.265625 -0.00390625 1.859375 -0.265625 C 1.453125 -0.523438 1.132812 -0.882812 0.90625 -1.34375 C 0.675781 -1.8125 0.5625 -2.351562 0.5625 -2.96875 C 0.5625 -3.59375 0.675781 -4.140625 0.90625 -4.609375 C 1.132812 -5.078125 1.453125 -5.4375 1.859375 -5.6875 C 2.265625 -5.945312 2.738281 -6.078125 3.28125 -6.078125 C 3.820312 -6.078125 4.296875 -5.945312 4.703125 -5.6875 C 5.109375 -5.4375 5.425781 -5.078125 5.65625 -4.609375 C 5.882812 -4.140625 6 -3.59375 6 -2.96875 C 6 -2.351562 5.882812 -1.8125 5.65625 -1.34375 C 5.425781 -0.882812 5.109375 -0.523438 4.703125 -0.265625 C 4.296875 -0.00390625 3.820312 0.125 3.28125 0.125 Z M 3.28125 -0.703125 C 3.695312 -0.703125 4.035156 -0.804688 4.296875 -1.015625 C 4.566406 -1.234375 4.765625 -1.515625 4.890625 -1.859375 C 5.015625 -2.203125 5.078125 -2.570312 5.078125 -2.96875 C 5.078125 -3.375 5.015625 -3.75 4.890625 -4.09375 C 4.765625 -4.4375 4.566406 -4.710938 4.296875 -4.921875 C 4.035156 -5.140625 3.695312 -5.25 3.28125 -5.25 C 2.875 -5.25 2.535156 -5.140625 2.265625 -4.921875 C 2.003906 -4.710938 1.804688 -4.4375 1.671875 -4.09375 C 1.546875 -3.75 1.484375 -3.375 1.484375 -2.96875 C 1.484375 -2.570312 1.546875 -2.203125 1.671875 -1.859375 C 1.804688 -1.515625 2.003906 -1.234375 2.265625 -1.015625 C 2.535156 -0.804688 2.875 -0.703125 3.28125 -0.703125 Z M 3.28125 -0.703125 "/></g></g></g><g fill="#ffffff" fill-opacity="1"><g transform="translate(60.259256, 20.10137)"><g/></g></g><g fill="#ffffff" fill-opacity="1"><g transform="translate(63.349412, 20.10137)"><g><path d="M 3.4375 0 L 0.96875 0 L 0.96875 -8 L 3.546875 -8 C 4.328125 -8 4.992188 -7.835938 5.546875 -7.515625 C 6.097656 -7.203125 6.519531 -6.75 6.8125 -6.15625 C 7.101562 -5.5625 7.25 -4.847656 7.25 -4.015625 C 7.25 -3.179688 7.097656 -2.460938 6.796875 -1.859375 C 6.503906 -1.265625 6.070312 -0.804688 5.5 -0.484375 C 4.9375 -0.160156 4.25 0 3.4375 0 Z M 1.9375 -0.859375 L 3.375 -0.859375 C 4.363281 -0.859375 5.097656 -1.140625 5.578125 -1.703125 C 6.066406 -2.265625 6.3125 -3.035156 6.3125 -4.015625 C 6.3125 -4.984375 6.070312 -5.742188 5.59375 -6.296875 C 5.125 -6.859375 4.421875 -7.140625 3.484375 -7.140625 L 1.9375 -7.140625 Z M 1.9375 -0.859375 "/></g></g></g><g fill="#ffffff" fill-opacity="1"><g transform="translate(71.246464, 20.10137)"><g><path d="M 2.609375 0.140625 C 2.234375 0.140625 1.890625 0.0664062 1.578125 -0.078125 C 1.265625 -0.222656 1.015625 -0.429688 0.828125 -0.703125 C 0.648438 -0.984375 0.5625 -1.316406 0.5625 -1.703125 C 0.5625 -2.046875 0.628906 -2.320312 0.765625 -2.53125 C 0.898438 -2.75 1.082031 -2.921875 1.3125 -3.046875 C 1.539062 -3.171875 1.789062 -3.265625 2.0625 -3.328125 C 2.332031 -3.390625 2.609375 -3.4375 2.890625 -3.46875 C 3.253906 -3.519531 3.550781 -3.554688 3.78125 -3.578125 C 4.007812 -3.597656 4.175781 -3.640625 4.28125 -3.703125 C 4.382812 -3.765625 4.4375 -3.867188 4.4375 -4.015625 L 4.4375 -4.046875 C 4.4375 -4.429688 4.332031 -4.726562 4.125 -4.9375 C 3.914062 -5.15625 3.597656 -5.265625 3.171875 -5.265625 C 2.734375 -5.265625 2.390625 -5.164062 2.140625 -4.96875 C 1.890625 -4.78125 1.710938 -4.578125 1.609375 -4.359375 L 0.734375 -4.671875 C 0.890625 -5.035156 1.097656 -5.316406 1.359375 -5.515625 C 1.617188 -5.722656 1.90625 -5.867188 2.21875 -5.953125 C 2.53125 -6.035156 2.835938 -6.078125 3.140625 -6.078125 C 3.335938 -6.078125 3.5625 -6.050781 3.8125 -6 C 4.0625 -5.957031 4.300781 -5.863281 4.53125 -5.71875 C 4.769531 -5.582031 4.96875 -5.375 5.125 -5.09375 C 5.28125 -4.8125 5.359375 -4.429688 5.359375 -3.953125 L 5.359375 0 L 4.4375 0 L 4.4375 -0.8125 L 4.390625 -0.8125 C 4.328125 -0.6875 4.222656 -0.546875 4.078125 -0.390625 C 3.929688 -0.242188 3.738281 -0.117188 3.5 -0.015625 C 3.257812 0.0859375 2.960938 0.140625 2.609375 0.140625 Z M 2.75 -0.6875 C 3.113281 -0.6875 3.421875 -0.757812 3.671875 -0.90625 C 3.921875 -1.050781 4.109375 -1.234375 4.234375 -1.453125 C 4.367188 -1.679688 4.4375 -1.921875 4.4375 -2.171875 L 4.4375 -3.015625 C 4.394531 -2.972656 4.304688 -2.929688 4.171875 -2.890625 C 4.046875 -2.847656 3.894531 -2.8125 3.71875 -2.78125 C 3.550781 -2.757812 3.390625 -2.738281 3.234375 -2.71875 C 3.078125 -2.695312 2.945312 -2.679688 2.84375 -2.671875 C 2.601562 -2.640625 2.378906 -2.585938 2.171875 -2.515625 C 1.960938 -2.453125 1.796875 -2.351562 1.671875 -2.21875 C 1.546875 -2.082031 1.484375 -1.894531 1.484375 -1.65625 C 1.484375 -1.332031 1.601562 -1.085938 1.84375 -0.921875 C 2.082031 -0.765625 2.382812 -0.6875 2.75 -0.6875 Z M 2.75 -0.6875 "/></g></g></g><g fill="#ffffff" fill-opacity="1"><g transform="translate(77.442378, 20.10137)"><g><path d="M 5.09375 -4.65625 L 4.265625 -4.421875 C 4.179688 -4.628906 4.046875 -4.820312 3.859375 -5 C 3.671875 -5.1875 3.375 -5.28125 2.96875 -5.28125 C 2.601562 -5.28125 2.296875 -5.195312 2.046875 -5.03125 C 1.804688 -4.863281 1.6875 -4.648438 1.6875 -4.390625 C 1.6875 -4.160156 1.769531 -3.976562 1.9375 -3.84375 C 2.101562 -3.71875 2.363281 -3.609375 2.71875 -3.515625 L 3.609375 -3.296875 C 4.671875 -3.035156 5.203125 -2.492188 5.203125 -1.671875 C 5.203125 -1.328125 5.101562 -1.019531 4.90625 -0.75 C 4.707031 -0.476562 4.429688 -0.265625 4.078125 -0.109375 C 3.734375 0.046875 3.328125 0.125 2.859375 0.125 C 2.242188 0.125 1.734375 -0.00390625 1.328125 -0.265625 C 0.929688 -0.535156 0.679688 -0.925781 0.578125 -1.4375 L 1.453125 -1.65625 C 1.617188 -1.007812 2.082031 -0.6875 2.84375 -0.6875 C 3.269531 -0.6875 3.609375 -0.773438 3.859375 -0.953125 C 4.117188 -1.140625 4.25 -1.363281 4.25 -1.625 C 4.25 -2.050781 3.953125 -2.332031 3.359375 -2.46875 L 2.359375 -2.703125 C 1.804688 -2.835938 1.398438 -3.039062 1.140625 -3.3125 C 0.890625 -3.582031 0.765625 -3.925781 0.765625 -4.34375 C 0.765625 -4.6875 0.859375 -4.988281 1.046875 -5.25 C 1.242188 -5.507812 1.507812 -5.710938 1.84375 -5.859375 C 2.175781 -6.003906 2.550781 -6.078125 2.96875 -6.078125 C 3.5625 -6.078125 4.023438 -5.945312 4.359375 -5.6875 C 4.703125 -5.425781 4.945312 -5.082031 5.09375 -4.65625 Z M 5.09375 -4.65625 "/></g></g></g><g fill="#ffffff" fill-opacity="1"><g transform="translate(83.185692, 20.10137)"><g><path d="M 1.765625 -3.609375 L 1.765625 0 L 0.84375 0 L 0.84375 -8 L 1.765625 -8 L 1.765625 -5.0625 L 1.84375 -5.0625 C 1.988281 -5.375 2.203125 -5.617188 2.484375 -5.796875 C 2.765625 -5.984375 3.140625 -6.078125 3.609375 -6.078125 C 4.222656 -6.078125 4.71875 -5.890625 5.09375 -5.515625 C 5.46875 -5.148438 5.65625 -4.582031 5.65625 -3.8125 L 5.65625 0 L 4.734375 0 L 4.734375 -3.75 C 4.734375 -4.226562 4.609375 -4.597656 4.359375 -4.859375 C 4.117188 -5.117188 3.78125 -5.25 3.34375 -5.25 C 2.882812 -5.25 2.503906 -5.101562 2.203125 -4.8125 C 1.910156 -4.53125 1.765625 -4.128906 1.765625 -3.609375 Z M 1.765625 -3.609375 "/></g></g></g><g fill="#ffffff" fill-opacity="1"><g transform="translate(89.678133, 20.10137)"><g><path d="M 0.96875 0 L 0.96875 -8 L 1.890625 -8 L 1.890625 -5.046875 L 1.96875 -5.046875 C 2.039062 -5.148438 2.132812 -5.28125 2.25 -5.4375 C 2.375 -5.601562 2.550781 -5.75 2.78125 -5.875 C 3.007812 -6.007812 3.316406 -6.078125 3.703125 -6.078125 C 4.210938 -6.078125 4.660156 -5.953125 5.046875 -5.703125 C 5.429688 -5.453125 5.726562 -5.09375 5.9375 -4.625 C 6.15625 -4.164062 6.265625 -3.617188 6.265625 -2.984375 C 6.265625 -2.347656 6.15625 -1.796875 5.9375 -1.328125 C 5.726562 -0.867188 5.429688 -0.507812 5.046875 -0.25 C 4.660156 0 4.21875 0.125 3.71875 0.125 C 3.332031 0.125 3.023438 0.0625 2.796875 -0.0625 C 2.566406 -0.195312 2.390625 -0.347656 2.265625 -0.515625 C 2.140625 -0.679688 2.039062 -0.816406 1.96875 -0.921875 L 1.859375 -0.921875 L 1.859375 0 Z M 1.875 -3 C 1.875 -2.320312 2.019531 -1.769531 2.3125 -1.34375 C 2.613281 -0.914062 3.039062 -0.703125 3.59375 -0.703125 C 3.976562 -0.703125 4.300781 -0.800781 4.5625 -1 C 4.820312 -1.207031 5.015625 -1.484375 5.140625 -1.828125 C 5.273438 -2.179688 5.34375 -2.570312 5.34375 -3 C 5.34375 -3.425781 5.273438 -3.804688 5.140625 -4.140625 C 5.015625 -4.484375 4.820312 -4.753906 4.5625 -4.953125 C 4.3125 -5.148438 3.988281 -5.25 3.59375 -5.25 C 3.03125 -5.25 2.601562 -5.039062 2.3125 -4.625 C 2.019531 -4.21875 1.875 -3.675781 1.875 -3 Z M 1.875 -3 "/></g></g></g><g fill="#ffffff" fill-opacity="1"><g transform="translate(96.498315, 20.10137)"><g><path d="M 3.28125 0.125 C 2.738281 0.125 2.265625 -0.00390625 1.859375 -0.265625 C 1.453125 -0.523438 1.132812 -0.882812 0.90625 -1.34375 C 0.675781 -1.8125 0.5625 -2.351562 0.5625 -2.96875 C 0.5625 -3.59375 0.675781 -4.140625 0.90625 -4.609375 C 1.132812 -5.078125 1.453125 -5.4375 1.859375 -5.6875 C 2.265625 -5.945312 2.738281 -6.078125 3.28125 -6.078125 C 3.820312 -6.078125 4.296875 -5.945312 4.703125 -5.6875 C 5.109375 -5.4375 5.425781 -5.078125 5.65625 -4.609375 C 5.882812 -4.140625 6 -3.59375 6 -2.96875 C 6 -2.351562 5.882812 -1.8125 5.65625 -1.34375 C 5.425781 -0.882812 5.109375 -0.523438 4.703125 -0.265625 C 4.296875 -0.00390625 3.820312 0.125 3.28125 0.125 Z M 3.28125 -0.703125 C 3.695312 -0.703125 4.035156 -0.804688 4.296875 -1.015625 C 4.566406 -1.234375 4.765625 -1.515625 4.890625 -1.859375 C 5.015625 -2.203125 5.078125 -2.570312 5.078125 -2.96875 C 5.078125 -3.375 5.015625 -3.75 4.890625 -4.09375 C 4.765625 -4.4375 4.566406 -4.710938 4.296875 -4.921875 C 4.035156 -5.140625 3.695312 -5.25 3.28125 -5.25 C 2.875 -5.25 2.535156 -5.140625 2.265625 -4.921875 C 2.003906 -4.710938 1.804688 -4.4375 1.671875 -4.09375 C 1.546875 -3.75 1.484375 -3.375 1.484375 -2.96875 C 1.484375 -2.570312 1.546875 -2.203125 1.671875 -1.859375 C 1.804688 -1.515625 2.003906 -1.234375 2.265625 -1.015625 C 2.535156 -0.804688 2.875 -0.703125 3.28125 -0.703125 Z M 3.28125 -0.703125 "/></g></g></g><g fill="#ffffff" fill-opacity="1"><g transform="translate(103.053186, 20.10137)"><g><path d="M 2.609375 0.140625 C 2.234375 0.140625 1.890625 0.0664062 1.578125 -0.078125 C 1.265625 -0.222656 1.015625 -0.429688 0.828125 -0.703125 C 0.648438 -0.984375 0.5625 -1.316406 0.5625 -1.703125 C 0.5625 -2.046875 0.628906 -2.320312 0.765625 -2.53125 C 0.898438 -2.75 1.082031 -2.921875 1.3125 -3.046875 C 1.539062 -3.171875 1.789062 -3.265625 2.0625 -3.328125 C 2.332031 -3.390625 2.609375 -3.4375 2.890625 -3.46875 C 3.253906 -3.519531 3.550781 -3.554688 3.78125 -3.578125 C 4.007812 -3.597656 4.175781 -3.640625 4.28125 -3.703125 C 4.382812 -3.765625 4.4375 -3.867188 4.4375 -4.015625 L 4.4375 -4.046875 C 4.4375 -4.429688 4.332031 -4.726562 4.125 -4.9375 C 3.914062 -5.15625 3.597656 -5.265625 3.171875 -5.265625 C 2.734375 -5.265625 2.390625 -5.164062 2.140625 -4.96875 C 1.890625 -4.78125 1.710938 -4.578125 1.609375 -4.359375 L 0.734375 -4.671875 C 0.890625 -5.035156 1.097656 -5.316406 1.359375 -5.515625 C 1.617188 -5.722656 1.90625 -5.867188 2.21875 -5.953125 C 2.53125 -6.035156 2.835938 -6.078125 3.140625 -6.078125 C 3.335938 -6.078125 3.5625 -6.050781 3.8125 -6 C 4.0625 -5.957031 4.300781 -5.863281 4.53125 -5.71875 C 4.769531 -5.582031 4.96875 -5.375 5.125 -5.09375 C 5.28125 -4.8125 5.359375 -4.429688 5.359375 -3.953125 L 5.359375 0 L 4.4375 0 L 4.4375 -0.8125 L 4.390625 -0.8125 C 4.328125 -0.6875 4.222656 -0.546875 4.078125 -0.390625 C 3.929688 -0.242188 3.738281 -0.117188 3.5 -0.015625 C 3.257812 0.0859375 2.960938 0.140625 2.609375 0.140625 Z M 2.75 -0.6875 C 3.113281 -0.6875 3.421875 -0.757812 3.671875 -0.90625 C 3.921875 -1.050781 4.109375 -1.234375 4.234375 -1.453125 C 4.367188 -1.679688 4.4375 -1.921875 4.4375 -2.171875 L 4.4375 -3.015625 C 4.394531 -2.972656 4.304688 -2.929688 4.171875 -2.890625 C 4.046875 -2.847656 3.894531 -2.8125 3.71875 -2.78125 C 3.550781 -2.757812 3.390625 -2.738281 3.234375 -2.71875 C 3.078125 -2.695312 2.945312 -2.679688 2.84375 -2.671875 C 2.601562 -2.640625 2.378906 -2.585938 2.171875 -2.515625 C 1.960938 -2.453125 1.796875 -2.351562 1.671875 -2.21875 C 1.546875 -2.082031 1.484375 -1.894531 1.484375 -1.65625 C 1.484375 -1.332031 1.601562 -1.085938 1.84375 -0.921875 C 2.082031 -0.765625 2.382812 -0.6875 2.75 -0.6875 Z M 2.75 -0.6875 "/></g></g></g><g fill="#ffffff" fill-opacity="1"><g transform="translate(109.249101, 20.10137)"><g><path d="M 0.84375 0 L 0.84375 -6 L 1.734375 -6 L 1.734375 -5.09375 L 1.796875 -5.09375 C 1.898438 -5.394531 2.09375 -5.632812 2.375 -5.8125 C 2.664062 -6 2.992188 -6.09375 3.359375 -6.09375 C 3.523438 -6.09375 3.671875 -6.070312 3.796875 -6.03125 C 3.921875 -6 4.03125 -5.945312 4.125 -5.875 L 3.8125 -5.09375 C 3.75 -5.125 3.671875 -5.148438 3.578125 -5.171875 C 3.492188 -5.191406 3.394531 -5.203125 3.28125 -5.203125 C 2.84375 -5.203125 2.476562 -5.066406 2.1875 -4.796875 C 1.90625 -4.535156 1.765625 -4.203125 1.765625 -3.796875 L 1.765625 0 Z M 0.84375 0 "/></g></g></g><g fill="#ffffff" fill-opacity="1"><g transform="translate(113.462943, 20.10137)"><g><path d="M 3.109375 0.125 C 2.609375 0.125 2.164062 0 1.78125 -0.25 C 1.40625 -0.507812 1.109375 -0.867188 0.890625 -1.328125 C 0.671875 -1.796875 0.5625 -2.347656 0.5625 -2.984375 C 0.5625 -3.617188 0.671875 -4.164062 0.890625 -4.625 C 1.109375 -5.09375 1.410156 -5.453125 1.796875 -5.703125 C 2.179688 -5.953125 2.625 -6.078125 3.125 -6.078125 C 3.519531 -6.078125 3.828125 -6.007812 4.046875 -5.875 C 4.273438 -5.75 4.453125 -5.601562 4.578125 -5.4375 C 4.703125 -5.28125 4.796875 -5.148438 4.859375 -5.046875 L 4.9375 -5.046875 L 4.9375 -8 L 5.859375 -8 L 5.859375 0 L 4.96875 0 L 4.96875 -0.921875 L 4.859375 -0.921875 C 4.796875 -0.816406 4.703125 -0.679688 4.578125 -0.515625 C 4.453125 -0.347656 4.269531 -0.195312 4.03125 -0.0625 C 3.800781 0.0625 3.492188 0.125 3.109375 0.125 Z M 3.234375 -0.703125 C 3.785156 -0.703125 4.207031 -0.914062 4.5 -1.34375 C 4.800781 -1.769531 4.953125 -2.320312 4.953125 -3 C 4.953125 -3.675781 4.804688 -4.21875 4.515625 -4.625 C 4.222656 -5.039062 3.796875 -5.25 3.234375 -5.25 C 2.847656 -5.25 2.523438 -5.148438 2.265625 -4.953125 C 2.003906 -4.753906 1.804688 -4.484375 1.671875 -4.140625 C 1.546875 -3.804688 1.484375 -3.425781 1.484375 -3 C 1.484375 -2.570312 1.546875 -2.179688 1.671875 -1.828125 C 1.804688 -1.484375 2.003906 -1.207031 2.265625 -1 C 2.523438 -0.800781 2.847656 -0.703125 3.234375 -0.703125 Z M 3.234375 -0.703125 "/></g></g></g><g fill="#ffffff" fill-opacity="1"><g transform="translate(120.282447, 20.10137)"><g/></g></g><g fill="#ffffff" fill-opacity="1"><g transform="translate(123.372603, 20.10137)"><g/></g></g><g fill="#ffffff" fill-opacity="1"><g transform="translate(126.46276, 20.10137)"><g/></g></g><g fill="#ffffff" fill-opacity="1"><g transform="translate(129.552916, 20.10137)"><g/></g></g><g fill="#ffffff" fill-opacity="1"><g transform="translate(132.643072, 20.10137)"><g/></g></g><g fill="#ffffff" fill-opacity="1"><g transform="translate(135.733229, 20.10137)"><g/></g></g><g fill="#ffffff" fill-opacity="1"><g transform="translate(138.823385, 20.10137)"><g/></g></g><g fill="#ffffff" fill-opacity="1"><g transform="translate(141.913541, 20.10137)"><g/></g></g><g fill="#ffffff" fill-opacity="1"><g transform="translate(145.003698, 20.10137)"><g/></g></g><g fill="#ffffff" fill-opacity="1"><g transform="translate(148.093854, 20.10137)"><g/></g></g><g clip-path="url(#3d683039d4)"><path fill="#e9eeff" d="M 179.21875 16.511719 C 179.21875 17.039062 179.195312 17.5625 179.144531 18.082031 C 179.089844 18.605469 179.015625 19.121094 178.914062 19.636719 C 178.808594 20.148438 178.683594 20.65625 178.53125 21.160156 C 178.378906 21.660156 178.203125 22.152344 178 22.636719 C 177.800781 23.121094 177.578125 23.59375 177.332031 24.058594 C 177.082031 24.519531 176.8125 24.96875 176.523438 25.40625 C 176.230469 25.839844 175.917969 26.261719 175.585938 26.667969 C 175.253906 27.070312 174.902344 27.460938 174.53125 27.828125 C 174.160156 28.199219 173.773438 28.550781 173.367188 28.882812 C 172.964844 29.21875 172.542969 29.527344 172.109375 29.820312 C 171.671875 30.109375 171.222656 30.378906 170.761719 30.628906 C 170.296875 30.875 169.824219 31.097656 169.339844 31.296875 C 168.855469 31.5 168.363281 31.675781 167.863281 31.828125 C 167.359375 31.980469 166.851562 32.105469 166.339844 32.210938 C 165.824219 32.3125 165.308594 32.386719 164.785156 32.441406 C 164.261719 32.492188 163.742188 32.515625 163.214844 32.515625 C 162.691406 32.515625 162.167969 32.492188 161.648438 32.441406 C 161.125 32.386719 160.609375 32.3125 160.09375 32.210938 C 159.582031 32.105469 159.074219 31.980469 158.570312 31.828125 C 158.070312 31.675781 157.578125 31.5 157.09375 31.296875 C 156.609375 31.097656 156.136719 30.875 155.671875 30.628906 C 155.210938 30.378906 154.761719 30.109375 154.324219 29.820312 C 153.890625 29.527344 153.46875 29.21875 153.0625 28.882812 C 152.660156 28.550781 152.269531 28.199219 151.902344 27.828125 C 151.53125 27.460938 151.179688 27.070312 150.847656 26.667969 C 150.511719 26.261719 150.203125 25.839844 149.910156 25.40625 C 149.617188 24.96875 149.351562 24.519531 149.101562 24.058594 C 148.855469 23.59375 148.632812 23.121094 148.429688 22.636719 C 148.230469 22.152344 148.054688 21.660156 147.902344 21.160156 C 147.75 20.65625 147.621094 20.148438 147.519531 19.636719 C 147.417969 19.121094 147.339844 18.605469 147.289062 18.082031 C 147.238281 17.5625 147.214844 17.039062 147.214844 16.511719 C 147.214844 15.988281 147.238281 15.464844 147.289062 14.945312 C 147.339844 14.421875 147.417969 13.90625 147.519531 13.390625 C 147.621094 12.878906 147.75 12.371094 147.902344 11.867188 C 148.054688 11.367188 148.230469 10.875 148.429688 10.390625 C 148.632812 9.90625 148.855469 9.433594 149.101562 8.96875 C 149.351562 8.507812 149.617188 8.058594 149.910156 7.621094 C 150.203125 7.1875 150.511719 6.765625 150.847656 6.359375 C 151.179688 5.957031 151.53125 5.566406 151.902344 5.199219 C 152.269531 4.828125 152.660156 4.476562 153.0625 4.144531 C 153.46875 3.808594 153.890625 3.5 154.324219 3.207031 C 154.761719 2.917969 155.210938 2.648438 155.671875 2.398438 C 156.136719 2.152344 156.609375 1.929688 157.09375 1.730469 C 157.578125 1.527344 158.070312 1.351562 158.570312 1.199219 C 159.074219 1.046875 159.582031 0.921875 160.09375 0.816406 C 160.609375 0.714844 161.125 0.640625 161.648438 0.585938 C 162.167969 0.535156 162.691406 0.511719 163.214844 0.511719 C 163.742188 0.511719 164.261719 0.535156 164.785156 0.585938 C 165.308594 0.640625 165.824219 0.714844 166.339844 0.816406 C 166.851562 0.921875 167.359375 1.046875 167.863281 1.199219 C 168.363281 1.351562 168.855469 1.527344 169.339844 1.730469 C 169.824219 1.929688 170.296875 2.152344 170.761719 2.398438 C 171.222656 2.648438 171.671875 2.917969 172.109375 3.207031 C 172.542969 3.5 172.964844 3.808594 173.367188 4.144531 C 173.773438 4.476562 174.160156 4.828125 174.53125 5.199219 C 174.902344 5.566406 175.253906 5.957031 175.585938 6.359375 C 175.917969 6.765625 176.230469 7.1875 176.523438 7.621094 C 176.8125 8.058594 177.082031 8.507812 177.332031 8.96875 C 177.578125 9.433594 177.800781 9.90625 178 10.390625 C 178.203125 10.875 178.378906 11.367188 178.53125 11.867188 C 178.683594 12.371094 178.808594 12.878906 178.914062 13.390625 C 179.015625 13.90625 179.089844 14.421875 179.144531 14.945312 C 179.195312 15.464844 179.21875 15.988281 179.21875 16.511719 Z M 179.21875 16.511719 " fill-opacity="1" fill-rule="nonzero"/></g><g clip-path="url(#b36bfdd8d0)"><path fill="#7388d7" d="M 163.214844 33.015625 C 154.117188 33.015625 146.714844 25.613281 146.714844 16.511719 C 146.714844 7.414062 154.117188 0.0117188 163.214844 0.0117188 C 172.316406 0.0117188 179.71875 7.414062 179.71875 16.511719 C 179.71875 25.613281 172.316406 33.015625 163.214844 33.015625 Z M 163.214844 1.011719 C 154.667969 1.011719 147.714844 7.964844 147.714844 16.511719 C 147.714844 25.0625 154.667969 32.015625 163.214844 32.015625 C 171.765625 32.015625 178.71875 25.0625 178.71875 16.511719 C 178.71875 7.964844 171.765625 1.011719 163.214844 1.011719 Z M 163.214844 1.011719 " fill-opacity="1" fill-rule="nonzero"/></g><path fill="#5d76d4" d="M 161.890625 22.753906 L 167.988281 16.425781 L 161.878906 10.273438 L 160.457031 11.683594 L 165.191406 16.449219 L 160.449219 21.367188 Z M 161.890625 22.753906 " fill-opacity="1" fill-rule="nonzero"/></svg>