<svg xmlns="http://www.w3.org/2000/svg" xmlns:xlink="http://www.w3.org/1999/xlink" width="40" zoomAndPan="magnify" viewBox="0 0 30 30.000001" height="40" preserveAspectRatio="xMidYMid meet" version="1.0"><defs><clipPath id="e7566dc285"><path d="M 1.9375 1.570312 L 28 1.570312 L 28 27.699219 L 1.9375 27.699219 Z M 1.9375 1.570312 " clip-rule="nonzero"/></clipPath><clipPath id="ca8ff8df0f"><path d="M 16 16 L 28.066406 16 L 28.066406 27.699219 L 16 27.699219 Z M 16 16 " clip-rule="nonzero"/></clipPath></defs><path fill="#ffffff" d="M 14.890625 5.433594 C 11.980469 5.433594 9.613281 7.824219 9.613281 10.761719 C 9.613281 13.695312 11.980469 16.085938 14.890625 16.085938 C 17.800781 16.085938 20.167969 13.695312 20.167969 10.761719 C 20.167969 7.824219 17.800781 5.433594 14.890625 5.433594 Z M 14.890625 5.433594 " fill-opacity="1" fill-rule="nonzero"/><g clip-path="url(#e7566dc285)"><path fill="#ffffff" d="M 14.890625 1.570312 C 7.75 1.570312 1.945312 7.433594 1.945312 14.636719 C 1.945312 21.839844 7.75 27.699219 14.890625 27.699219 C 15.722656 27.699219 16.539062 27.621094 17.34375 27.464844 C 15.863281 26.089844 14.933594 24.121094 14.933594 21.9375 C 14.933594 20.378906 15.410156 18.925781 16.21875 17.722656 C 15.785156 17.660156 15.339844 17.628906 14.890625 17.628906 C 11.484375 17.628906 8.386719 19.449219 6.699219 22.363281 C 4.824219 20.335938 3.671875 17.621094 3.671875 14.636719 C 3.671875 8.394531 8.703125 3.3125 14.890625 3.3125 C 21.078125 3.3125 26.109375 8.394531 26.109375 14.636719 C 26.109375 14.90625 26.101562 15.171875 26.082031 15.4375 C 26.667969 15.785156 27.203125 16.203125 27.675781 16.6875 C 27.78125 16.011719 27.835938 15.328125 27.835938 14.636719 C 27.835938 7.433594 22.027344 1.570312 14.890625 1.570312 Z M 14.890625 1.570312 " fill-opacity="1" fill-rule="nonzero"/></g><g clip-path="url(#ca8ff8df0f)"><path fill="#ffffff" d="M 22.371094 16.179688 C 19.222656 16.179688 16.660156 18.761719 16.660156 21.9375 C 16.660156 25.117188 19.222656 27.699219 22.371094 27.699219 C 25.519531 27.699219 28.078125 25.117188 28.078125 21.9375 C 28.078125 18.761719 25.519531 16.179688 22.371094 16.179688 Z M 24.660156 21.511719 L 22.589844 23.601562 C 22.429688 23.761719 22.207031 23.855469 21.980469 23.855469 C 21.75 23.855469 21.53125 23.761719 21.367188 23.597656 L 20.078125 22.296875 C 19.742188 21.957031 19.742188 21.40625 20.078125 21.066406 C 20.417969 20.726562 20.964844 20.726562 21.300781 21.066406 L 21.980469 21.75 L 23.4375 20.277344 C 23.777344 19.9375 24.324219 19.9375 24.660156 20.277344 C 24.996094 20.617188 24.996094 21.171875 24.660156 21.511719 Z M 24.660156 21.511719 " fill-opacity="1" fill-rule="nonzero"/></g></svg>