<svg xmlns="http://www.w3.org/2000/svg" xmlns:xlink="http://www.w3.org/1999/xlink" width="40" zoomAndPan="magnify" viewBox="0 0 30 30.000001" height="40" preserveAspectRatio="xMidYMid meet" version="1.0"><defs><clipPath id="1323be5858"><path d="M 10 0 L 29.515625 0 L 29.515625 29.03125 L 10 29.03125 Z M 10 0 " clip-rule="nonzero"/></clipPath><clipPath id="3c14578a04"><path d="M 0.484375 6 L 14 6 L 14 19 L 0.484375 19 Z M 0.484375 6 " clip-rule="nonzero"/></clipPath></defs><g clip-path="url(#1323be5858)"><path fill="#555588" d="M 26.832031 0.136719 C 26.800781 0.136719 26.777344 0.121094 26.746094 0.121094 L 13.796875 0.121094 C 11.804688 0.121094 10.179688 1.742188 10.179688 3.734375 L 10.179688 4.9375 C 10.179688 5.605469 10.722656 6.144531 11.386719 6.144531 C 12.050781 6.144531 12.589844 5.605469 12.589844 4.9375 L 12.589844 3.734375 C 12.589844 3.070312 13.132812 2.53125 13.796875 2.53125 L 19.40625 2.53125 L 19.039062 2.652344 C 18.066406 2.988281 17.410156 3.910156 17.410156 4.9375 L 17.410156 23.007812 L 13.796875 23.007812 C 13.132812 23.007812 12.589844 22.46875 12.589844 21.804688 L 12.589844 19.394531 C 12.589844 18.730469 12.050781 18.191406 11.386719 18.191406 C 10.722656 18.191406 10.179688 18.730469 10.179688 19.394531 L 10.179688 21.804688 C 10.179688 23.796875 11.804688 25.417969 13.796875 25.417969 L 17.410156 25.417969 L 17.410156 26.621094 C 17.410156 27.953125 18.488281 29.03125 19.820312 29.03125 C 20.078125 29.03125 20.320312 28.996094 20.585938 28.914062 L 27.824219 26.5 C 28.800781 26.164062 29.457031 25.242188 29.457031 24.214844 L 29.457031 2.53125 C 29.457031 1.125 28.246094 0.0234375 26.832031 0.136719 Z M 26.832031 0.136719 " fill-opacity="1" fill-rule="nonzero"/></g><g clip-path="url(#3c14578a04)"><path fill="#555588" d="M 13.441406 11.316406 L 8.625 6.496094 C 8.277344 6.152344 7.761719 6.046875 7.3125 6.234375 C 6.863281 6.421875 6.566406 6.863281 6.566406 7.347656 L 6.566406 10.960938 L 1.75 10.960938 C 1.082031 10.960938 0.542969 11.503906 0.542969 12.167969 C 0.542969 12.832031 1.082031 13.371094 1.75 13.371094 L 6.566406 13.371094 L 6.566406 16.984375 C 6.566406 17.472656 6.863281 17.910156 7.3125 18.097656 C 7.761719 18.285156 8.277344 18.183594 8.625 17.835938 L 13.441406 13.019531 C 13.914062 12.546875 13.914062 11.785156 13.441406 11.316406 Z M 13.441406 11.316406 " fill-opacity="1" fill-rule="nonzero"/></g></svg>